<?xml version="1.0" encoding="UTF-8" standalone="no"?><svg xmlns="http://www.w3.org/2000/svg" xmlns:xlink="http://www.w3.org/1999/xlink" contentStyleType="text/css" height="146px" preserveAspectRatio="none" style="width:466px;height:146px;background:#FFFFFF;" version="1.1" viewBox="0 0 466 146" width="466px" zoomAndPan="magnify"><defs/><g><!--MD5=[7d0e5ddd73bd8fec86b8967827845935]
class Empresa--><g id="elem_Empresa"><rect codeLine="1" fill="#F1F1F1" height="48" id="Empresa" rx="2.5" ry="2.5" style="stroke:#181818;stroke-width:0.5;" width="88" x="168" y="91.84"/><ellipse cx="183" cy="107.84" fill="#ADD1B2" rx="11" ry="11" style="stroke:#181818;stroke-width:1.0;"/><path d="M185.7656,103.715 Q185.9219,103.4963 186.1094,103.3869 Q186.2969,103.2775 186.5156,103.2775 Q186.8906,103.2775 187.125,103.5431 Q187.3594,103.7931 187.3594,104.4025 L187.3594,105.8556 Q187.3594,106.465 187.125,106.7306 Q186.8906,106.9963 186.5156,106.9963 Q186.1719,106.9963 185.9688,106.7931 Q185.7656,106.6056 185.6563,106.09 Q185.6094,105.7306 185.4219,105.5431 Q185.0938,105.1681 184.4844,104.9494 Q183.875,104.7306 183.25,104.7306 Q182.4844,104.7306 181.8438,105.0588 Q181.2188,105.3869 180.7188,106.1369 Q180.2344,106.8869 180.2344,107.9181 L180.2344,109.0119 Q180.2344,110.2463 181.125,111.0744 Q182.0156,111.8869 183.6094,111.8869 Q184.5469,111.8869 185.2031,111.6369 Q185.5938,111.4806 186.0156,111.0431 Q186.2813,110.7775 186.4219,110.6994 Q186.5781,110.6213 186.7813,110.6213 Q187.1094,110.6213 187.3594,110.8869 Q187.625,111.1369 187.625,111.4806 Q187.625,111.8244 187.2813,112.2306 Q186.7813,112.8088 185.9844,113.1369 Q184.9063,113.59 183.6094,113.59 Q182.0938,113.59 180.8906,112.965 Q179.9063,112.465 179.2188,111.4025 Q178.5313,110.3244 178.5313,109.0431 L178.5313,107.8869 Q178.5313,106.5588 179.1406,105.4181 Q179.7656,104.2619 180.8594,103.6525 Q181.9531,103.0275 183.1875,103.0275 Q183.9219,103.0275 184.5625,103.1994 Q185.2188,103.3556 185.7656,103.715 Z " fill="#000000"/><text fill="#000000" font-family="sans-serif" font-size="14" lengthAdjust="spacing" textLength="56" x="197" y="113.5685">Empresa</text><line style="stroke:#181818;stroke-width:0.5;" x1="169" x2="255" y1="123.84" y2="123.84"/><line style="stroke:#181818;stroke-width:0.5;" x1="169" x2="255" y1="131.84" y2="131.84"/></g><!--MD5=[8b24f5a8f8af46f7b7b165e59b045d19]
class Estrategia--><g id="elem_Estrategia"><rect fill="#F1F1F1" height="48" id="Estrategia" rx="2.5" ry="2.5" style="stroke:#181818;stroke-width:0.5;" width="96" x="7" y="91.84"/><ellipse cx="22" cy="107.84" fill="#ADD1B2" rx="11" ry="11" style="stroke:#181818;stroke-width:1.0;"/><path d="M24.7656,103.715 Q24.9219,103.4963 25.1094,103.3869 Q25.2969,103.2775 25.5156,103.2775 Q25.8906,103.2775 26.125,103.5431 Q26.3594,103.7931 26.3594,104.4025 L26.3594,105.8556 Q26.3594,106.465 26.125,106.7306 Q25.8906,106.9963 25.5156,106.9963 Q25.1719,106.9963 24.9688,106.7931 Q24.7656,106.6056 24.6563,106.09 Q24.6094,105.7306 24.4219,105.5431 Q24.0938,105.1681 23.4844,104.9494 Q22.875,104.7306 22.25,104.7306 Q21.4844,104.7306 20.8438,105.0588 Q20.2188,105.3869 19.7188,106.1369 Q19.2344,106.8869 19.2344,107.9181 L19.2344,109.0119 Q19.2344,110.2463 20.125,111.0744 Q21.0156,111.8869 22.6094,111.8869 Q23.5469,111.8869 24.2031,111.6369 Q24.5938,111.4806 25.0156,111.0431 Q25.2813,110.7775 25.4219,110.6994 Q25.5781,110.6213 25.7813,110.6213 Q26.1094,110.6213 26.3594,110.8869 Q26.625,111.1369 26.625,111.4806 Q26.625,111.8244 26.2813,112.2306 Q25.7813,112.8088 24.9844,113.1369 Q23.9063,113.59 22.6094,113.59 Q21.0938,113.59 19.8906,112.965 Q18.9063,112.465 18.2188,111.4025 Q17.5313,110.3244 17.5313,109.0431 L17.5313,107.8869 Q17.5313,106.5588 18.1406,105.4181 Q18.7656,104.2619 19.8594,103.6525 Q20.9531,103.0275 22.1875,103.0275 Q22.9219,103.0275 23.5625,103.1994 Q24.2188,103.3556 24.7656,103.715 Z " fill="#000000"/><text fill="#000000" font-family="sans-serif" font-size="14" lengthAdjust="spacing" textLength="64" x="36" y="113.5685">Estrategia</text><line style="stroke:#181818;stroke-width:0.5;" x1="8" x2="102" y1="123.84" y2="123.84"/><line style="stroke:#181818;stroke-width:0.5;" x1="8" x2="102" y1="131.84" y2="131.84"/></g><!--MD5=[7771e62474b0382ee524a29783486a31]
class Planificación--><g id="elem_Planificación"><rect fill="#F1F1F1" height="48" id="Planificación" rx="2.5" ry="2.5" style="stroke:#181818;stroke-width:0.5;" width="111" x="348.5" y="91.84"/><ellipse cx="363.5" cy="107.84" fill="#ADD1B2" rx="11" ry="11" style="stroke:#181818;stroke-width:1.0;"/><path d="M366.2656,103.715 Q366.4219,103.4963 366.6094,103.3869 Q366.7969,103.2775 367.0156,103.2775 Q367.3906,103.2775 367.625,103.5431 Q367.8594,103.7931 367.8594,104.4025 L367.8594,105.8556 Q367.8594,106.465 367.625,106.7306 Q367.3906,106.9963 367.0156,106.9963 Q366.6719,106.9963 366.4688,106.7931 Q366.2656,106.6056 366.1563,106.09 Q366.1094,105.7306 365.9219,105.5431 Q365.5938,105.1681 364.9844,104.9494 Q364.375,104.7306 363.75,104.7306 Q362.9844,104.7306 362.3438,105.0588 Q361.7188,105.3869 361.2188,106.1369 Q360.7344,106.8869 360.7344,107.9181 L360.7344,109.0119 Q360.7344,110.2463 361.625,111.0744 Q362.5156,111.8869 364.1094,111.8869 Q365.0469,111.8869 365.7031,111.6369 Q366.0938,111.4806 366.5156,111.0431 Q366.7813,110.7775 366.9219,110.6994 Q367.0781,110.6213 367.2813,110.6213 Q367.6094,110.6213 367.8594,110.8869 Q368.125,111.1369 368.125,111.4806 Q368.125,111.8244 367.7813,112.2306 Q367.2813,112.8088 366.4844,113.1369 Q365.4063,113.59 364.1094,113.59 Q362.5938,113.59 361.3906,112.965 Q360.4063,112.465 359.7188,111.4025 Q359.0313,110.3244 359.0313,109.0431 L359.0313,107.8869 Q359.0313,106.5588 359.6406,105.4181 Q360.2656,104.2619 361.3594,103.6525 Q362.4531,103.0275 363.6875,103.0275 Q364.4219,103.0275 365.0625,103.1994 Q365.7188,103.3556 366.2656,103.715 Z " fill="#000000"/><text fill="#000000" font-family="sans-serif" font-size="14" lengthAdjust="spacing" textLength="79" x="377.5" y="113.5685">Planificación</text><line style="stroke:#181818;stroke-width:0.5;" x1="349.5" x2="458.5" y1="123.84" y2="123.84"/><line style="stroke:#181818;stroke-width:0.5;" x1="349.5" x2="458.5" y1="131.84" y2="131.84"/></g><!--MD5=[e84d49905efe192c0fbfcf2d67c5cc9a]
link Estrategia to Empresa--><g id="link_Estrategia_Empresa"><path codeLine="4" d="M103.39,115.84 C122.16,115.84 143.65,115.84 162.53,115.84 " fill="none" id="Estrategia-to-Empresa" style="stroke:#181818;stroke-width:1.0;"/><polygon fill="#181818" points="167.78,115.84,158.78,111.84,162.78,115.84,158.78,119.84,167.78,115.84" style="stroke:#181818;stroke-width:1.0;"/><text fill="#000000" font-family="sans-serif" font-size="13" lengthAdjust="spacing" textLength="28" x="121.5" y="109.3351">clara</text></g><!--MD5=[9852ca93c35272debaea89851a6ddae6]
reverse link Empresa to Planificación--><g id="link_Empresa_Planificación"><path codeLine="5" d="M261.29,115.84 C287.93,115.84 320.91,115.84 348.46,115.84 " fill="none" id="Empresa-backto-Planificación" style="stroke:#181818;stroke-width:1.0;"/><polygon fill="#181818" points="256.05,115.84,265.05,119.84,261.05,115.84,265.05,111.84,256.05,115.84" style="stroke:#181818;stroke-width:1.0;"/><text fill="#000000" font-family="sans-serif" font-size="13" lengthAdjust="spacing" textLength="56" x="274.25" y="109.3351">adecuada</text></g><!--MD5=[82815bccea1c1ca365078974f4dec8fb]
link Estrategia to Planificación--><g id="link_Estrategia_Planificación"><path codeLine="7" d="M83.64,91.69 C112.43,69.12 159.15,36.99 206,23.84 C269.56,6 338.27,55.01 375.71,88.17 " fill="none" id="Estrategia-to-Planificación" style="stroke:#181818;stroke-width:1.0;stroke-dasharray:7.0,7.0;"/><polygon fill="#181818" points="379.68,91.73,375.6662,82.7361,375.9635,88.3852,370.3145,88.6825,379.68,91.73" style="stroke:#181818;stroke-width:1.0;"/><text fill="#000000" font-family="sans-serif" font-size="13" lengthAdjust="spacing" textLength="4" x="224" y="25.3351"> </text><text fill="#000000" font-family="sans-serif" font-size="13" lengthAdjust="spacing" textLength="4" x="224" y="41.6867"> </text><text fill="#000000" font-family="sans-serif" font-size="13" lengthAdjust="spacing" textLength="38" x="207" y="58.0382">Guía a</text></g><!--MD5=[e9ffc94412cb232bff0c528c9bbf44ad]
@startuml
class Empresa


Estrategia - -r-> Empresa:clara
Planificación - -l-> Empresa:adecuada

Estrategia ..r..> Planificación: \n\nGuía a
@enduml

PlantUML version 1.2022.7(Mon Aug 22 19:01:30 CEST 2022)
(GPL source distribution)
Java Runtime: Java(TM) SE Runtime Environment
JVM: Java HotSpot(TM) 64-Bit Server VM
Default Encoding: UTF-8
Language: es
Country: ES
--></g></svg>