<?xml version="1.0" encoding="UTF-8" standalone="no"?><svg xmlns="http://www.w3.org/2000/svg" xmlns:xlink="http://www.w3.org/1999/xlink" contentStyleType="text/css" height="227px" preserveAspectRatio="none" style="width:394px;height:227px;background:#FFFFFF;" version="1.1" viewBox="0 0 394 227" width="394px" zoomAndPan="magnify"><defs/><g><!--MD5=[7d0e5ddd73bd8fec86b8967827845935]
class Empresa--><g id="elem_Empresa"><rect codeLine="1" fill="#F1F1F1" height="48" id="Empresa" rx="2.5" ry="2.5" style="stroke:#181818;stroke-width:0.5;" width="88" x="149" y="7"/><ellipse cx="164" cy="23" fill="#ADD1B2" rx="11" ry="11" style="stroke:#181818;stroke-width:1.0;"/><path d="M166.7656,18.875 Q166.9219,18.6563 167.1094,18.5469 Q167.2969,18.4375 167.5156,18.4375 Q167.8906,18.4375 168.125,18.7031 Q168.3594,18.9531 168.3594,19.5625 L168.3594,21.0156 Q168.3594,21.625 168.125,21.8906 Q167.8906,22.1563 167.5156,22.1563 Q167.1719,22.1563 166.9688,21.9531 Q166.7656,21.7656 166.6563,21.25 Q166.6094,20.8906 166.4219,20.7031 Q166.0938,20.3281 165.4844,20.1094 Q164.875,19.8906 164.25,19.8906 Q163.4844,19.8906 162.8438,20.2188 Q162.2188,20.5469 161.7188,21.2969 Q161.2344,22.0469 161.2344,23.0781 L161.2344,24.1719 Q161.2344,25.4063 162.125,26.2344 Q163.0156,27.0469 164.6094,27.0469 Q165.5469,27.0469 166.2031,26.7969 Q166.5938,26.6406 167.0156,26.2031 Q167.2813,25.9375 167.4219,25.8594 Q167.5781,25.7813 167.7813,25.7813 Q168.1094,25.7813 168.3594,26.0469 Q168.625,26.2969 168.625,26.6406 Q168.625,26.9844 168.2813,27.3906 Q167.7813,27.9688 166.9844,28.2969 Q165.9063,28.75 164.6094,28.75 Q163.0938,28.75 161.8906,28.125 Q160.9063,27.625 160.2188,26.5625 Q159.5313,25.4844 159.5313,24.2031 L159.5313,23.0469 Q159.5313,21.7188 160.1406,20.5781 Q160.7656,19.4219 161.8594,18.8125 Q162.9531,18.1875 164.1875,18.1875 Q164.9219,18.1875 165.5625,18.3594 Q166.2188,18.5156 166.7656,18.875 Z " fill="#000000"/><text fill="#000000" font-family="sans-serif" font-size="14" lengthAdjust="spacing" textLength="56" x="178" y="28.7285">Empresa</text><line style="stroke:#181818;stroke-width:0.5;" x1="150" x2="236" y1="39" y2="39"/><line style="stroke:#181818;stroke-width:0.5;" x1="150" x2="236" y1="47" y2="47"/></g><!--MD5=[8b24f5a8f8af46f7b7b165e59b045d19]
class Estrategia--><g id="elem_Estrategia"><rect fill="#F1F1F1" height="48" id="Estrategia" rx="2.5" ry="2.5" style="stroke:#181818;stroke-width:0.5;" width="96" x="7" y="133"/><ellipse cx="22" cy="149" fill="#ADD1B2" rx="11" ry="11" style="stroke:#181818;stroke-width:1.0;"/><path d="M24.7656,144.875 Q24.9219,144.6563 25.1094,144.5469 Q25.2969,144.4375 25.5156,144.4375 Q25.8906,144.4375 26.125,144.7031 Q26.3594,144.9531 26.3594,145.5625 L26.3594,147.0156 Q26.3594,147.625 26.125,147.8906 Q25.8906,148.1563 25.5156,148.1563 Q25.1719,148.1563 24.9688,147.9531 Q24.7656,147.7656 24.6563,147.25 Q24.6094,146.8906 24.4219,146.7031 Q24.0938,146.3281 23.4844,146.1094 Q22.875,145.8906 22.25,145.8906 Q21.4844,145.8906 20.8438,146.2188 Q20.2188,146.5469 19.7188,147.2969 Q19.2344,148.0469 19.2344,149.0781 L19.2344,150.1719 Q19.2344,151.4063 20.125,152.2344 Q21.0156,153.0469 22.6094,153.0469 Q23.5469,153.0469 24.2031,152.7969 Q24.5938,152.6406 25.0156,152.2031 Q25.2813,151.9375 25.4219,151.8594 Q25.5781,151.7813 25.7813,151.7813 Q26.1094,151.7813 26.3594,152.0469 Q26.625,152.2969 26.625,152.6406 Q26.625,152.9844 26.2813,153.3906 Q25.7813,153.9688 24.9844,154.2969 Q23.9063,154.75 22.6094,154.75 Q21.0938,154.75 19.8906,154.125 Q18.9063,153.625 18.2188,152.5625 Q17.5313,151.4844 17.5313,150.2031 L17.5313,149.0469 Q17.5313,147.7188 18.1406,146.5781 Q18.7656,145.4219 19.8594,144.8125 Q20.9531,144.1875 22.1875,144.1875 Q22.9219,144.1875 23.5625,144.3594 Q24.2188,144.5156 24.7656,144.875 Z " fill="#000000"/><text fill="#000000" font-family="sans-serif" font-size="14" lengthAdjust="spacing" textLength="64" x="36" y="154.7285">Estrategia</text><line style="stroke:#181818;stroke-width:0.5;" x1="8" x2="102" y1="165" y2="165"/><line style="stroke:#181818;stroke-width:0.5;" x1="8" x2="102" y1="173" y2="173"/></g><!--MD5=[7771e62474b0382ee524a29783486a31]
class Planificación--><g id="elem_Planificación"><rect fill="#F1F1F1" height="48" id="Planificación" rx="2.5" ry="2.5" style="stroke:#181818;stroke-width:0.5;" width="111" x="276.5" y="133"/><ellipse cx="291.5" cy="149" fill="#ADD1B2" rx="11" ry="11" style="stroke:#181818;stroke-width:1.0;"/><path d="M294.2656,144.875 Q294.4219,144.6563 294.6094,144.5469 Q294.7969,144.4375 295.0156,144.4375 Q295.3906,144.4375 295.625,144.7031 Q295.8594,144.9531 295.8594,145.5625 L295.8594,147.0156 Q295.8594,147.625 295.625,147.8906 Q295.3906,148.1563 295.0156,148.1563 Q294.6719,148.1563 294.4688,147.9531 Q294.2656,147.7656 294.1563,147.25 Q294.1094,146.8906 293.9219,146.7031 Q293.5938,146.3281 292.9844,146.1094 Q292.375,145.8906 291.75,145.8906 Q290.9844,145.8906 290.3438,146.2188 Q289.7188,146.5469 289.2188,147.2969 Q288.7344,148.0469 288.7344,149.0781 L288.7344,150.1719 Q288.7344,151.4063 289.625,152.2344 Q290.5156,153.0469 292.1094,153.0469 Q293.0469,153.0469 293.7031,152.7969 Q294.0938,152.6406 294.5156,152.2031 Q294.7813,151.9375 294.9219,151.8594 Q295.0781,151.7813 295.2813,151.7813 Q295.6094,151.7813 295.8594,152.0469 Q296.125,152.2969 296.125,152.6406 Q296.125,152.9844 295.7813,153.3906 Q295.2813,153.9688 294.4844,154.2969 Q293.4063,154.75 292.1094,154.75 Q290.5938,154.75 289.3906,154.125 Q288.4063,153.625 287.7188,152.5625 Q287.0313,151.4844 287.0313,150.2031 L287.0313,149.0469 Q287.0313,147.7188 287.6406,146.5781 Q288.2656,145.4219 289.3594,144.8125 Q290.4531,144.1875 291.6875,144.1875 Q292.4219,144.1875 293.0625,144.3594 Q293.7188,144.5156 294.2656,144.875 Z " fill="#000000"/><text fill="#000000" font-family="sans-serif" font-size="14" lengthAdjust="spacing" textLength="79" x="305.5" y="154.7285">Planificación</text><line style="stroke:#181818;stroke-width:0.5;" x1="277.5" x2="386.5" y1="165" y2="165"/><line style="stroke:#181818;stroke-width:0.5;" x1="277.5" x2="386.5" y1="173" y2="173"/></g><!--MD5=[dc6299352a60a9651cd2eb410fac0956]
reverse link Empresa to Estrategia--><g id="link_Empresa_Estrategia"><path codeLine="6" d="M163.52,58.48 C139.01,80.51 104.45,111.56 80.96,132.67 " fill="none" id="Empresa-backto-Estrategia" style="stroke:#181818;stroke-width:1.0;"/><polygon fill="#181818" points="167.37,55.03,158.0045,58.0775,163.6535,58.3748,163.3562,64.0239,167.37,55.03" style="stroke:#181818;stroke-width:1.0;"/><text fill="#000000" font-family="sans-serif" font-size="13" lengthAdjust="spacing" textLength="28" x="134" y="99.4951">clara</text></g><!--MD5=[9852ca93c35272debaea89851a6ddae6]
reverse link Empresa to Planificación--><g id="link_Empresa_Planificación"><path codeLine="7" d="M222.69,58.48 C247.38,80.51 282.19,111.56 305.85,132.67 " fill="none" id="Empresa-backto-Planificación" style="stroke:#181818;stroke-width:1.0;"/><polygon fill="#181818" points="218.82,55.03,222.8701,64.0076,222.5499,58.3598,228.1977,58.0397,218.82,55.03" style="stroke:#181818;stroke-width:1.0;"/><text fill="#000000" font-family="sans-serif" font-size="13" lengthAdjust="spacing" textLength="56" x="271" y="99.4951">adecuada</text></g><!--MD5=[82815bccea1c1ca365078974f4dec8fb]
link Estrategia to Planificación--><g id="link_Estrategia_Planificación"><path codeLine="9" d="M94.86,181.08 C116.25,192.6 143.54,205.14 169.75,211 C212,220.44 258.76,201.6 291.19,183.64 " fill="none" id="Estrategia-to-Planificación" style="stroke:#181818;stroke-width:1.0;stroke-dasharray:7.0,7.0;"/><polygon fill="#181818" points="295.87,181,286.0658,181.9367,291.5148,183.4561,289.9955,188.9051,295.87,181" style="stroke:#181818;stroke-width:1.0;"/><text fill="#000000" font-family="sans-serif" font-size="13" lengthAdjust="spacing" textLength="4" x="187.75" y="174.4951"> </text><text fill="#000000" font-family="sans-serif" font-size="13" lengthAdjust="spacing" textLength="4" x="187.75" y="190.8467"> </text><text fill="#000000" font-family="sans-serif" font-size="13" lengthAdjust="spacing" textLength="38" x="170.75" y="207.1982">Guía a</text></g><!--MD5=[382fac22c74cae8bc07bdc5171aea50a]
link Planificación to Estrategia--><g id="link_Planificación_Estrategia"><path codeLine="10" d="M276.21,157 C227.28,157 156.63,157 108.43,157 " fill="none" id="Planificación-to-Estrategia" style="stroke:#181818;stroke-width:1.0;stroke-dasharray:7.0,7.0;"/><polygon fill="#181818" points="103.25,157,112.25,161,108.25,157,112.25,153,103.25,157" style="stroke:#181818;stroke-width:1.0;"/><text fill="#000000" font-family="sans-serif" font-size="13" lengthAdjust="spacing" textLength="4" x="187.75" y="117.4951"> </text><text fill="#000000" font-family="sans-serif" font-size="13" lengthAdjust="spacing" textLength="4" x="187.75" y="133.8467"> </text><text fill="#000000" font-family="sans-serif" font-size="13" lengthAdjust="spacing" textLength="137" x="121.25" y="150.1982">Ayuda a que se cumpla</text></g><!--MD5=[774922451c32221b402af0808e21f7b8]
@startuml
class Empresa




Estrategia -u-> Empresa:clara
Planificación -u-> Empresa:adecuada

Estrategia .r.> Planificación: \n\nGuía a
Planificación ..> Estrategia: \n\nAyuda a que se cumpla


@enduml

PlantUML version 1.2022.7(Mon Aug 22 19:01:30 CEST 2022)
(GPL source distribution)
Java Runtime: Java(TM) SE Runtime Environment
JVM: Java HotSpot(TM) 64-Bit Server VM
Default Encoding: UTF-8
Language: es
Country: ES
--></g></svg>