<?xml version="1.0" encoding="UTF-8" standalone="no"?><svg xmlns="http://www.w3.org/2000/svg" xmlns:xlink="http://www.w3.org/1999/xlink" contentStyleType="text/css" height="158px" preserveAspectRatio="none" style="width:342px;height:158px;background:#FFFFFF;" version="1.1" viewBox="0 0 342 158" width="342px" zoomAndPan="magnify"><defs/><g><!--MD5=[8b24f5a8f8af46f7b7b165e59b045d19]
class Estrategia--><g id="elem_Estrategia"><rect fill="#F1F1F1" height="27.6094" id="Estrategia" rx="2.5" ry="2.5" style="stroke:#181818;stroke-width:0.5;" width="70" x="7" y="113"/><text fill="#000000" font-family="sans-serif" font-size="14" lengthAdjust="spacing" textLength="64" x="10" y="132.5332">Estrategia</text></g><!--MD5=[7d0e5ddd73bd8fec86b8967827845935]
class Empresa--><g id="elem_Empresa"><rect fill="#F1F1F1" height="27.6094" id="Empresa" rx="2.5" ry="2.5" style="stroke:#181818;stroke-width:0.5;" width="62" x="136" y="7"/><text fill="#000000" font-family="sans-serif" font-size="14" lengthAdjust="spacing" textLength="56" x="139" y="26.5332">Empresa</text></g><!--MD5=[7771e62474b0382ee524a29783486a31]
class Planificación--><g id="elem_Planificación"><rect fill="#F1F1F1" height="27.6094" id="Planificación" rx="2.5" ry="2.5" style="stroke:#181818;stroke-width:0.5;" width="85" x="250.5" y="113"/><text fill="#000000" font-family="sans-serif" font-size="14" lengthAdjust="spacing" textLength="79" x="253.5" y="132.5332">Planificación</text></g><!--MD5=[3c335ff79f0fdc4b26d58479f66b684c]
link Empresa to Estrategia--><g id="link_Empresa_Estrategia"><path codeLine="1" d="M151.17,35.17 C127.12,55.18 81.67,92.99 57.7,112.94 " fill="none" id="Empresa-Estrategia" style="stroke:#181818;stroke-width:1.0;"/><polygon fill="#000000" points="120.8436,70.9778,112.0108,74.5038,115.7702,79.0222,120.8436,70.9778" style="stroke:#000000;stroke-width:1.0;"/><text fill="#000000" font-family="sans-serif" font-size="13" lengthAdjust="spacing" textLength="28" x="126" y="79.4951">clara</text></g><!--MD5=[f01ddb3bb788e7ad58457e869a21cba9]
link Empresa to Planificación--><g id="link_Empresa_Planificación"><path codeLine="2" d="M182.96,35.17 C207.19,55.18 253.01,92.99 277.17,112.94 " fill="none" id="Empresa-Planificación" style="stroke:#181818;stroke-width:1.0;"/><polygon fill="#000000" points="238.1441,70.9927,243.2486,79.0174,246.9905,74.4845,238.1441,70.9927" style="stroke:#000000;stroke-width:1.0;"/><text fill="#000000" font-family="sans-serif" font-size="13" lengthAdjust="spacing" textLength="56" x="251" y="79.4951">adecuada</text></g><!--MD5=[82815bccea1c1ca365078974f4dec8fb]
link Estrategia to Planificación--><g id="link_Estrategia_Planificación"><path codeLine="4" d="M77.04,136.07 C96.54,140.65 121.32,145.71 143.75,148 C177.83,151.48 216.09,145.91 245.34,139.63 " fill="none" id="Estrategia-to-Planificación" style="stroke:#181818;stroke-width:1.0;stroke-dasharray:7.0,7.0;"/><polygon fill="#181818" points="250.32,138.54,240.6721,136.5607,245.4361,139.611,242.3857,144.375,250.32,138.54" style="stroke:#181818;stroke-width:1.0;"/><text fill="#000000" font-family="sans-serif" font-size="13" lengthAdjust="spacing" textLength="38" x="144.75" y="144.4951">Guía a</text></g><!--MD5=[382fac22c74cae8bc07bdc5171aea50a]
link Planificación to Estrategia--><g id="link_Planificación_Estrategia"><path codeLine="5" d="M250.09,127 C203.09,127 128.3,127 82.35,127 " fill="none" id="Planificación-to-Estrategia" style="stroke:#181818;stroke-width:1.0;stroke-dasharray:7.0,7.0;"/><polygon fill="#181818" points="77.16,127,86.16,131,82.16,127,86.16,123,77.16,127" style="stroke:#181818;stroke-width:1.0;"/><text fill="#000000" font-family="sans-serif" font-size="13" lengthAdjust="spacing" textLength="137" x="95.25" y="120.4951">Ayuda a que se cumpla</text></g><!--MD5=[743e9d2106c6da29c14281773159154c]
@startuml
Estrategia -u- Empresa:> clara
Planificación -u- Empresa:> adecuada

Estrategia .r.> Planificación: Guía a
Planificación ...> Estrategia: Ayuda a que se cumpla

hide class circle
hide empty members
@enduml

PlantUML version 1.2022.7(Mon Aug 22 19:01:30 CEST 2022)
(GPL source distribution)
Java Runtime: Java(TM) SE Runtime Environment
JVM: Java HotSpot(TM) 64-Bit Server VM
Default Encoding: UTF-8
Language: es
Country: ES
--></g></svg>