<?xml version="1.0" encoding="UTF-8" standalone="no"?><svg xmlns="http://www.w3.org/2000/svg" xmlns:xlink="http://www.w3.org/1999/xlink" contentStyleType="text/css" height="331px" preserveAspectRatio="none" style="width:471px;height:331px;background:#FFFFFF;" version="1.1" viewBox="0 0 471 331" width="471px" zoomAndPan="magnify"><defs/><g><!--MD5=[1ec02a56cfdb0fb8691cbdccdb3560c9]
cluster Empresa--><g id="cluster_Empresa"><path d="M8.5,6 L70.5,6 A3.75,3.75 0 0 1 73,8.5 L80,29.6094 L461.5,29.6094 A2.5,2.5 0 0 1 464,32.1094 L464,321.5 A2.5,2.5 0 0 1 461.5,324 L8.5,324 A2.5,2.5 0 0 1 6,321.5 L6,8.5 A2.5,2.5 0 0 1 8.5,6 " fill="none" style="stroke:#000000;stroke-width:1.5;"/><line style="stroke:#000000;stroke-width:1.5;" x1="6" x2="80" y1="29.6094" y2="29.6094"/><text fill="#000000" font-family="sans-serif" font-size="14" font-weight="bold" lengthAdjust="spacing" textLength="61" x="10" y="22.5332">Empresa</text></g><!--MD5=[a2a1c5208c625434b186fb231d976767]
class Empresav001--><g id="elem_Empresav001"><rect fill="#F1F1F1" height="48" id="Empresav001" rx="2.5" ry="2.5" style="stroke:#181818;stroke-width:0.5;" width="119" x="32.5" y="42"/><ellipse cx="47.5" cy="58" fill="#ADD1B2" rx="11" ry="11" style="stroke:#181818;stroke-width:1.0;"/><path d="M50.2656,53.875 Q50.4219,53.6563 50.6094,53.5469 Q50.7969,53.4375 51.0156,53.4375 Q51.3906,53.4375 51.625,53.7031 Q51.8594,53.9531 51.8594,54.5625 L51.8594,56.0156 Q51.8594,56.625 51.625,56.8906 Q51.3906,57.1563 51.0156,57.1563 Q50.6719,57.1563 50.4688,56.9531 Q50.2656,56.7656 50.1563,56.25 Q50.1094,55.8906 49.9219,55.7031 Q49.5938,55.3281 48.9844,55.1094 Q48.375,54.8906 47.75,54.8906 Q46.9844,54.8906 46.3438,55.2188 Q45.7188,55.5469 45.2188,56.2969 Q44.7344,57.0469 44.7344,58.0781 L44.7344,59.1719 Q44.7344,60.4063 45.625,61.2344 Q46.5156,62.0469 48.1094,62.0469 Q49.0469,62.0469 49.7031,61.7969 Q50.0938,61.6406 50.5156,61.2031 Q50.7813,60.9375 50.9219,60.8594 Q51.0781,60.7813 51.2813,60.7813 Q51.6094,60.7813 51.8594,61.0469 Q52.125,61.2969 52.125,61.6406 Q52.125,61.9844 51.7813,62.3906 Q51.2813,62.9688 50.4844,63.2969 Q49.4063,63.75 48.1094,63.75 Q46.5938,63.75 45.3906,63.125 Q44.4063,62.625 43.7188,61.5625 Q43.0313,60.4844 43.0313,59.2031 L43.0313,58.0469 Q43.0313,56.7188 43.6406,55.5781 Q44.2656,54.4219 45.3594,53.8125 Q46.4531,53.1875 47.6875,53.1875 Q48.4219,53.1875 49.0625,53.3594 Q49.7188,53.5156 50.2656,53.875 Z " fill="#000000"/><text fill="#000000" font-family="sans-serif" font-size="14" lengthAdjust="spacing" textLength="87" x="61.5" y="63.7285">Empresav001</text><line style="stroke:#181818;stroke-width:0.5;" x1="33.5" x2="150.5" y1="74" y2="74"/><line style="stroke:#181818;stroke-width:0.5;" x1="33.5" x2="150.5" y1="82" y2="82"/></g><!--MD5=[e7c2338fe9efbeac863cc7a617d42309]
class Empresav002--><g id="elem_Empresav002"><rect fill="#F1F1F1" height="48" id="Empresav002" rx="2.5" ry="2.5" style="stroke:#181818;stroke-width:0.5;" width="119" x="322.5" y="42"/><ellipse cx="337.5" cy="58" fill="#ADD1B2" rx="11" ry="11" style="stroke:#181818;stroke-width:1.0;"/><path d="M340.2656,53.875 Q340.4219,53.6563 340.6094,53.5469 Q340.7969,53.4375 341.0156,53.4375 Q341.3906,53.4375 341.625,53.7031 Q341.8594,53.9531 341.8594,54.5625 L341.8594,56.0156 Q341.8594,56.625 341.625,56.8906 Q341.3906,57.1563 341.0156,57.1563 Q340.6719,57.1563 340.4688,56.9531 Q340.2656,56.7656 340.1563,56.25 Q340.1094,55.8906 339.9219,55.7031 Q339.5938,55.3281 338.9844,55.1094 Q338.375,54.8906 337.75,54.8906 Q336.9844,54.8906 336.3438,55.2188 Q335.7188,55.5469 335.2188,56.2969 Q334.7344,57.0469 334.7344,58.0781 L334.7344,59.1719 Q334.7344,60.4063 335.625,61.2344 Q336.5156,62.0469 338.1094,62.0469 Q339.0469,62.0469 339.7031,61.7969 Q340.0938,61.6406 340.5156,61.2031 Q340.7813,60.9375 340.9219,60.8594 Q341.0781,60.7813 341.2813,60.7813 Q341.6094,60.7813 341.8594,61.0469 Q342.125,61.2969 342.125,61.6406 Q342.125,61.9844 341.7813,62.3906 Q341.2813,62.9688 340.4844,63.2969 Q339.4063,63.75 338.1094,63.75 Q336.5938,63.75 335.3906,63.125 Q334.4063,62.625 333.7188,61.5625 Q333.0313,60.4844 333.0313,59.2031 L333.0313,58.0469 Q333.0313,56.7188 333.6406,55.5781 Q334.2656,54.4219 335.3594,53.8125 Q336.4531,53.1875 337.6875,53.1875 Q338.4219,53.1875 339.0625,53.3594 Q339.7188,53.5156 340.2656,53.875 Z " fill="#000000"/><text fill="#000000" font-family="sans-serif" font-size="14" lengthAdjust="spacing" textLength="87" x="351.5" y="63.7285">Empresav002</text><line style="stroke:#181818;stroke-width:0.5;" x1="323.5" x2="440.5" y1="74" y2="74"/><line style="stroke:#181818;stroke-width:0.5;" x1="323.5" x2="440.5" y1="82" y2="82"/></g><!--MD5=[88acaf8c66b51908a5d7e43479c0bec4]
class Estrategiav001--><g id="elem_Estrategiav001"><rect fill="#F1F1F1" height="48" id="Estrategiav001" rx="2.5" ry="2.5" style="stroke:#181818;stroke-width:0.5;" width="127" x="22.5" y="151"/><ellipse cx="37.5" cy="167" fill="#ADD1B2" rx="11" ry="11" style="stroke:#181818;stroke-width:1.0;"/><path d="M40.2656,162.875 Q40.4219,162.6563 40.6094,162.5469 Q40.7969,162.4375 41.0156,162.4375 Q41.3906,162.4375 41.625,162.7031 Q41.8594,162.9531 41.8594,163.5625 L41.8594,165.0156 Q41.8594,165.625 41.625,165.8906 Q41.3906,166.1563 41.0156,166.1563 Q40.6719,166.1563 40.4688,165.9531 Q40.2656,165.7656 40.1563,165.25 Q40.1094,164.8906 39.9219,164.7031 Q39.5938,164.3281 38.9844,164.1094 Q38.375,163.8906 37.75,163.8906 Q36.9844,163.8906 36.3438,164.2188 Q35.7188,164.5469 35.2188,165.2969 Q34.7344,166.0469 34.7344,167.0781 L34.7344,168.1719 Q34.7344,169.4063 35.625,170.2344 Q36.5156,171.0469 38.1094,171.0469 Q39.0469,171.0469 39.7031,170.7969 Q40.0938,170.6406 40.5156,170.2031 Q40.7813,169.9375 40.9219,169.8594 Q41.0781,169.7813 41.2813,169.7813 Q41.6094,169.7813 41.8594,170.0469 Q42.125,170.2969 42.125,170.6406 Q42.125,170.9844 41.7813,171.3906 Q41.2813,171.9688 40.4844,172.2969 Q39.4063,172.75 38.1094,172.75 Q36.5938,172.75 35.3906,172.125 Q34.4063,171.625 33.7188,170.5625 Q33.0313,169.4844 33.0313,168.2031 L33.0313,167.0469 Q33.0313,165.7188 33.6406,164.5781 Q34.2656,163.4219 35.3594,162.8125 Q36.4531,162.1875 37.6875,162.1875 Q38.4219,162.1875 39.0625,162.3594 Q39.7188,162.5156 40.2656,162.875 Z " fill="#000000"/><text fill="#000000" font-family="sans-serif" font-size="14" lengthAdjust="spacing" textLength="95" x="51.5" y="172.7285">Estrategiav001</text><line style="stroke:#181818;stroke-width:0.5;" x1="23.5" x2="148.5" y1="183" y2="183"/><line style="stroke:#181818;stroke-width:0.5;" x1="23.5" x2="148.5" y1="191" y2="191"/></g><!--MD5=[d387694e8ec4a12d249be9ffa956b7d8]
class Planificacionv001--><g id="elem_Planificacionv001"><rect fill="#F1F1F1" height="48" id="Planificacionv001" rx="2.5" ry="2.5" style="stroke:#181818;stroke-width:0.5;" width="142" x="22" y="260"/><ellipse cx="37" cy="276" fill="#ADD1B2" rx="11" ry="11" style="stroke:#181818;stroke-width:1.0;"/><path d="M39.7656,271.875 Q39.9219,271.6563 40.1094,271.5469 Q40.2969,271.4375 40.5156,271.4375 Q40.8906,271.4375 41.125,271.7031 Q41.3594,271.9531 41.3594,272.5625 L41.3594,274.0156 Q41.3594,274.625 41.125,274.8906 Q40.8906,275.1563 40.5156,275.1563 Q40.1719,275.1563 39.9688,274.9531 Q39.7656,274.7656 39.6563,274.25 Q39.6094,273.8906 39.4219,273.7031 Q39.0938,273.3281 38.4844,273.1094 Q37.875,272.8906 37.25,272.8906 Q36.4844,272.8906 35.8438,273.2188 Q35.2188,273.5469 34.7188,274.2969 Q34.2344,275.0469 34.2344,276.0781 L34.2344,277.1719 Q34.2344,278.4063 35.125,279.2344 Q36.0156,280.0469 37.6094,280.0469 Q38.5469,280.0469 39.2031,279.7969 Q39.5938,279.6406 40.0156,279.2031 Q40.2813,278.9375 40.4219,278.8594 Q40.5781,278.7813 40.7813,278.7813 Q41.1094,278.7813 41.3594,279.0469 Q41.625,279.2969 41.625,279.6406 Q41.625,279.9844 41.2813,280.3906 Q40.7813,280.9688 39.9844,281.2969 Q38.9063,281.75 37.6094,281.75 Q36.0938,281.75 34.8906,281.125 Q33.9063,280.625 33.2188,279.5625 Q32.5313,278.4844 32.5313,277.2031 L32.5313,276.0469 Q32.5313,274.7188 33.1406,273.5781 Q33.7656,272.4219 34.8594,271.8125 Q35.9531,271.1875 37.1875,271.1875 Q37.9219,271.1875 38.5625,271.3594 Q39.2188,271.5156 39.7656,271.875 Z " fill="#000000"/><text fill="#000000" font-family="sans-serif" font-size="14" lengthAdjust="spacing" textLength="110" x="51" y="281.7285">Planificacionv001</text><line style="stroke:#181818;stroke-width:0.5;" x1="23" x2="163" y1="292" y2="292"/><line style="stroke:#181818;stroke-width:0.5;" x1="23" x2="163" y1="300" y2="300"/></g><!--MD5=[9b3203d03270e708acc3d0bbdd79b0f0]
class Estrategiav002--><g id="elem_Estrategiav002"><rect fill="#F1F1F1" height="48" id="Estrategiav002" rx="2.5" ry="2.5" style="stroke:#181818;stroke-width:0.5;" width="127" x="320.5" y="151"/><ellipse cx="335.5" cy="167" fill="#ADD1B2" rx="11" ry="11" style="stroke:#181818;stroke-width:1.0;"/><path d="M338.2656,162.875 Q338.4219,162.6563 338.6094,162.5469 Q338.7969,162.4375 339.0156,162.4375 Q339.3906,162.4375 339.625,162.7031 Q339.8594,162.9531 339.8594,163.5625 L339.8594,165.0156 Q339.8594,165.625 339.625,165.8906 Q339.3906,166.1563 339.0156,166.1563 Q338.6719,166.1563 338.4688,165.9531 Q338.2656,165.7656 338.1563,165.25 Q338.1094,164.8906 337.9219,164.7031 Q337.5938,164.3281 336.9844,164.1094 Q336.375,163.8906 335.75,163.8906 Q334.9844,163.8906 334.3438,164.2188 Q333.7188,164.5469 333.2188,165.2969 Q332.7344,166.0469 332.7344,167.0781 L332.7344,168.1719 Q332.7344,169.4063 333.625,170.2344 Q334.5156,171.0469 336.1094,171.0469 Q337.0469,171.0469 337.7031,170.7969 Q338.0938,170.6406 338.5156,170.2031 Q338.7813,169.9375 338.9219,169.8594 Q339.0781,169.7813 339.2813,169.7813 Q339.6094,169.7813 339.8594,170.0469 Q340.125,170.2969 340.125,170.6406 Q340.125,170.9844 339.7813,171.3906 Q339.2813,171.9688 338.4844,172.2969 Q337.4063,172.75 336.1094,172.75 Q334.5938,172.75 333.3906,172.125 Q332.4063,171.625 331.7188,170.5625 Q331.0313,169.4844 331.0313,168.2031 L331.0313,167.0469 Q331.0313,165.7188 331.6406,164.5781 Q332.2656,163.4219 333.3594,162.8125 Q334.4531,162.1875 335.6875,162.1875 Q336.4219,162.1875 337.0625,162.3594 Q337.7188,162.5156 338.2656,162.875 Z " fill="#000000"/><text fill="#000000" font-family="sans-serif" font-size="14" lengthAdjust="spacing" textLength="95" x="349.5" y="172.7285">Estrategiav002</text><line style="stroke:#181818;stroke-width:0.5;" x1="321.5" x2="446.5" y1="183" y2="183"/><line style="stroke:#181818;stroke-width:0.5;" x1="321.5" x2="446.5" y1="191" y2="191"/></g><!--MD5=[49909c5969531dd3677644e9583f98a1]
class Planificacionv002--><g id="elem_Planificacionv002"><rect fill="#F1F1F1" height="48" id="Planificacionv002" rx="2.5" ry="2.5" style="stroke:#181818;stroke-width:0.5;" width="142" x="306" y="260"/><ellipse cx="321" cy="276" fill="#ADD1B2" rx="11" ry="11" style="stroke:#181818;stroke-width:1.0;"/><path d="M323.7656,271.875 Q323.9219,271.6563 324.1094,271.5469 Q324.2969,271.4375 324.5156,271.4375 Q324.8906,271.4375 325.125,271.7031 Q325.3594,271.9531 325.3594,272.5625 L325.3594,274.0156 Q325.3594,274.625 325.125,274.8906 Q324.8906,275.1563 324.5156,275.1563 Q324.1719,275.1563 323.9688,274.9531 Q323.7656,274.7656 323.6563,274.25 Q323.6094,273.8906 323.4219,273.7031 Q323.0938,273.3281 322.4844,273.1094 Q321.875,272.8906 321.25,272.8906 Q320.4844,272.8906 319.8438,273.2188 Q319.2188,273.5469 318.7188,274.2969 Q318.2344,275.0469 318.2344,276.0781 L318.2344,277.1719 Q318.2344,278.4063 319.125,279.2344 Q320.0156,280.0469 321.6094,280.0469 Q322.5469,280.0469 323.2031,279.7969 Q323.5938,279.6406 324.0156,279.2031 Q324.2813,278.9375 324.4219,278.8594 Q324.5781,278.7813 324.7813,278.7813 Q325.1094,278.7813 325.3594,279.0469 Q325.625,279.2969 325.625,279.6406 Q325.625,279.9844 325.2813,280.3906 Q324.7813,280.9688 323.9844,281.2969 Q322.9063,281.75 321.6094,281.75 Q320.0938,281.75 318.8906,281.125 Q317.9063,280.625 317.2188,279.5625 Q316.5313,278.4844 316.5313,277.2031 L316.5313,276.0469 Q316.5313,274.7188 317.1406,273.5781 Q317.7656,272.4219 318.8594,271.8125 Q319.9531,271.1875 321.1875,271.1875 Q321.9219,271.1875 322.5625,271.3594 Q323.2188,271.5156 323.7656,271.875 Z " fill="#000000"/><text fill="#000000" font-family="sans-serif" font-size="14" lengthAdjust="spacing" textLength="110" x="335" y="281.7285">Planificacionv002</text><line style="stroke:#181818;stroke-width:0.5;" x1="307" x2="447" y1="292" y2="292"/><line style="stroke:#181818;stroke-width:0.5;" x1="307" x2="447" y1="300" y2="300"/></g><!--MD5=[297bfc80be8726cb2e4fdd25ad34e9a1]
class Innovación--><g id="elem_Innovación"><rect fill="#F1F1F1" height="48" id="Innovación" rx="2.5" ry="2.5" style="stroke:#181818;stroke-width:0.5;" width="100" x="185" y="151"/><ellipse cx="200" cy="167" fill="#ADD1B2" rx="11" ry="11" style="stroke:#181818;stroke-width:1.0;"/><path d="M202.7656,162.875 Q202.9219,162.6563 203.1094,162.5469 Q203.2969,162.4375 203.5156,162.4375 Q203.8906,162.4375 204.125,162.7031 Q204.3594,162.9531 204.3594,163.5625 L204.3594,165.0156 Q204.3594,165.625 204.125,165.8906 Q203.8906,166.1563 203.5156,166.1563 Q203.1719,166.1563 202.9688,165.9531 Q202.7656,165.7656 202.6563,165.25 Q202.6094,164.8906 202.4219,164.7031 Q202.0938,164.3281 201.4844,164.1094 Q200.875,163.8906 200.25,163.8906 Q199.4844,163.8906 198.8438,164.2188 Q198.2188,164.5469 197.7188,165.2969 Q197.2344,166.0469 197.2344,167.0781 L197.2344,168.1719 Q197.2344,169.4063 198.125,170.2344 Q199.0156,171.0469 200.6094,171.0469 Q201.5469,171.0469 202.2031,170.7969 Q202.5938,170.6406 203.0156,170.2031 Q203.2813,169.9375 203.4219,169.8594 Q203.5781,169.7813 203.7813,169.7813 Q204.1094,169.7813 204.3594,170.0469 Q204.625,170.2969 204.625,170.6406 Q204.625,170.9844 204.2813,171.3906 Q203.7813,171.9688 202.9844,172.2969 Q201.9063,172.75 200.6094,172.75 Q199.0938,172.75 197.8906,172.125 Q196.9063,171.625 196.2188,170.5625 Q195.5313,169.4844 195.5313,168.2031 L195.5313,167.0469 Q195.5313,165.7188 196.1406,164.5781 Q196.7656,163.4219 197.8594,162.8125 Q198.9531,162.1875 200.1875,162.1875 Q200.9219,162.1875 201.5625,162.3594 Q202.2188,162.5156 202.7656,162.875 Z " fill="#000000"/><text fill="#000000" font-family="sans-serif" font-size="14" lengthAdjust="spacing" textLength="68" x="214" y="172.7285">Innovación</text><line style="stroke:#181818;stroke-width:0.5;" x1="186" x2="284" y1="183" y2="183"/><line style="stroke:#181818;stroke-width:0.5;" x1="186" x2="284" y1="191" y2="191"/></g><!--MD5=[64c39ed157ca38fea95a9e54258d8b01]
link Empresav001 to Empresav002--><g id="link_Empresav001_Empresav002"><path codeLine="3" d="M151.74,66 C199.99,66 267.78,66 317.3,66 " fill="none" id="Empresav001-to-Empresav002" style="stroke:#181818;stroke-width:1.0;stroke-dasharray:7.0,7.0;"/><polygon fill="#181818" points="322.34,66,313.34,62,317.34,66,313.34,70,322.34,66" style="stroke:#181818;stroke-width:1.0;"/><text fill="#000000" font-family="sans-serif" font-size="13" lengthAdjust="spacing" textLength="85" x="194.5" y="43.4951">pasa el tiempo</text><text fill="#000000" font-family="sans-serif" font-size="13" lengthAdjust="spacing" textLength="127" x="173.5" y="59.8467">cambia el ecosistema</text></g><!--MD5=[1cdf162b52fe4abd647d1fe6035e808e]
reverse link Empresav001 to Estrategiav001--><g id="link_Empresav001_Estrategiav001"><path codeLine="5" d="M90.41,95.43 C89.44,112.74 88.21,134.57 87.3,150.83 " fill="none" id="Empresav001-backto-Estrategiav001" style="stroke:#181818;stroke-width:1.0;"/><polygon fill="#181818" points="90.7,90.22,86.1931,98.9771,90.4148,95.2119,94.18,99.4335,90.7,90.22" style="stroke:#181818;stroke-width:1.0;"/></g><!--MD5=[6c20abbe62f93253cad426b8db619cdc]
link Estrategiav001 to Planificacionv001--><g id="link_Estrategiav001_Planificacionv001"><path codeLine="6" d="M87.52,199.22 C88.69,217.16 90.31,241.89 91.48,259.83 " fill="none" id="Estrategiav001-Planificacionv001" style="stroke:#181818;stroke-width:1.0;"/></g><!--MD5=[0d5027325036a17c4588caee691ef37e]
reverse link Empresav002 to Estrategiav002--><g id="link_Empresav002_Estrategiav002"><path codeLine="8" d="M382.53,95.43 C382.85,112.74 383.26,134.57 383.57,150.83 " fill="none" id="Empresav002-backto-Estrategiav002" style="stroke:#181818;stroke-width:1.0;"/><polygon fill="#181818" points="382.43,90.22,378.6108,99.2982,382.53,95.219,386.6092,99.1382,382.43,90.22" style="stroke:#181818;stroke-width:1.0;"/></g><!--MD5=[f21a2d565f2253ce2f613fd97d9cad59]
link Estrategiav002 to Planificacionv002--><g id="link_Estrategiav002_Planificacionv002"><path codeLine="9" d="M382.48,199.22 C381.31,217.16 379.69,241.89 378.52,259.83 " fill="none" id="Estrategiav002-Planificacionv002" style="stroke:#181818;stroke-width:1.0;"/></g><!--MD5=[7e4eca3ac1e54221b2cc8cec71921d90]
link Estrategiav001 to Innovación--><g id="link_Estrategiav001_Innovación"><path codeLine="11" d="M149.73,175 C161.39,175 173.05,175 184.71,175 " fill="none" id="Estrategiav001-Innovación" style="stroke:#181818;stroke-width:1.0;"/></g><!--MD5=[b5fbb614630516c912224dda3f53342e]
link Innovación to Estrategiav002--><g id="link_Innovación_Estrategiav002"><path codeLine="12" d="M285.05,175 C296.78,175 308.5,175 320.23,175 " fill="none" id="Innovación-Estrategiav002" style="stroke:#181818;stroke-width:1.0;"/></g><!--MD5=[68a7c2dcce48bd5b14c3cb638d25d70b]
@startuml
package Empresa {

Empresav001 ...r...> Empresav002:pasa el tiempo\ncambia el ecosistema

Empresav001 <-d- Estrategiav001
Estrategiav001 -d- Planificacionv001

Empresav002 <-d- Estrategiav002
Estrategiav002 -d- Planificacionv002

Estrategiav001 -r- Innovación
Innovación -r- Estrategiav002

}
@enduml

PlantUML version 1.2022.7(Mon Aug 22 19:01:30 CEST 2022)
(GPL source distribution)
Java Runtime: Java(TM) SE Runtime Environment
JVM: Java HotSpot(TM) 64-Bit Server VM
Default Encoding: UTF-8
Language: es
Country: ES
--></g></svg>