<?xml version="1.0" encoding="UTF-8" standalone="no"?><svg xmlns="http://www.w3.org/2000/svg" xmlns:xlink="http://www.w3.org/1999/xlink" contentStyleType="text/css" height="307px" preserveAspectRatio="none" style="width:396px;height:307px;background:#FFFFFF;" version="1.1" viewBox="0 0 396 307" width="396px" zoomAndPan="magnify"><defs/><g><!--MD5=[1ec02a56cfdb0fb8691cbdccdb3560c9]
cluster Empresa--><g id="cluster_Empresa"><path d="M8.5,42.3564 L70.5,42.3564 A3.75,3.75 0 0 1 73,44.8564 L80,65.9658 L386.5,65.9658 A2.5,2.5 0 0 1 389,68.4658 L389,297.8564 A2.5,2.5 0 0 1 386.5,300.3564 L8.5,300.3564 A2.5,2.5 0 0 1 6,297.8564 L6,44.8564 A2.5,2.5 0 0 1 8.5,42.3564 " fill="none" style="stroke:#000000;stroke-width:1.5;"/><line style="stroke:#000000;stroke-width:1.5;" x1="6" x2="80" y1="65.9658" y2="65.9658"/><text fill="#000000" font-family="sans-serif" font-size="14" font-weight="bold" lengthAdjust="spacing" textLength="61" x="10" y="58.8896">Empresa</text></g><!--MD5=[a2a1c5208c625434b186fb231d976767]
class Empresav001--><g id="elem_Empresav001"><rect fill="#F1F1F1" height="27.6094" id="Empresav001" rx="2.5" ry="2.5" style="stroke:#181818;stroke-width:0.5;" width="93" x="22.5" y="78.3564"/><text fill="#000000" font-family="sans-serif" font-size="14" lengthAdjust="spacing" textLength="87" x="25.5" y="97.8896">Empresav001</text></g><!--MD5=[e7c2338fe9efbeac863cc7a617d42309]
class Empresav002--><g id="elem_Empresav002"><rect fill="#F1F1F1" height="27.6094" id="Empresav002" rx="2.5" ry="2.5" style="stroke:#181818;stroke-width:0.5;" width="93" x="279.5" y="78.3564"/><text fill="#000000" font-family="sans-serif" font-size="14" lengthAdjust="spacing" textLength="87" x="282.5" y="97.8896">Empresav002</text></g><!--MD5=[88acaf8c66b51908a5d7e43479c0bec4]
class Estrategiav001--><g id="elem_Estrategiav001"><rect fill="#F1F1F1" height="27.6094" id="Estrategiav001" rx="2.5" ry="2.5" style="stroke:#181818;stroke-width:0.5;" width="101" x="24.5" y="167.3564"/><text fill="#000000" font-family="sans-serif" font-size="14" lengthAdjust="spacing" textLength="95" x="27.5" y="186.8896">Estrategiav001</text></g><!--MD5=[d387694e8ec4a12d249be9ffa956b7d8]
class Planificacionv001--><g id="elem_Planificacionv001"><rect fill="#F1F1F1" height="27.6094" id="Planificacionv001" rx="2.5" ry="2.5" style="stroke:#181818;stroke-width:0.5;" width="116" x="22" y="256.3564"/><text fill="#000000" font-family="sans-serif" font-size="14" lengthAdjust="spacing" textLength="110" x="25" y="275.8896">Planificacionv001</text></g><!--MD5=[9b3203d03270e708acc3d0bbdd79b0f0]
class Estrategiav002--><g id="elem_Estrategiav002"><rect fill="#F1F1F1" height="27.6094" id="Estrategiav002" rx="2.5" ry="2.5" style="stroke:#181818;stroke-width:0.5;" width="101" x="270.5" y="167.3564"/><text fill="#000000" font-family="sans-serif" font-size="14" lengthAdjust="spacing" textLength="95" x="273.5" y="186.8896">Estrategiav002</text></g><!--MD5=[49909c5969531dd3677644e9583f98a1]
class Planificacionv002--><g id="elem_Planificacionv002"><rect fill="#F1F1F1" height="27.6094" id="Planificacionv002" rx="2.5" ry="2.5" style="stroke:#181818;stroke-width:0.5;" width="116" x="257" y="256.3564"/><text fill="#000000" font-family="sans-serif" font-size="14" lengthAdjust="spacing" textLength="110" x="260" y="275.8896">Planificacionv002</text></g><!--MD5=[297bfc80be8726cb2e4fdd25ad34e9a1]
class Innovación--><g id="elem_Innovación"><rect fill="#F1F1F1" height="27.6094" id="Innovación" rx="2.5" ry="2.5" style="stroke:#181818;stroke-width:0.5;" width="74" x="161" y="167.3564"/><text fill="#000000" font-family="sans-serif" font-size="14" lengthAdjust="spacing" textLength="68" x="164" y="186.8896">Innovación</text></g><!--MD5=[64c39ed157ca38fea95a9e54258d8b01]
link Empresav001 to Empresav002--><g id="link_Empresav001_Empresav002"><path codeLine="3" d="M115.54,92.3564 C160.25,92.3564 227.68,92.3564 274.1,92.3564 " fill="none" id="Empresav001-to-Empresav002" style="stroke:#181818;stroke-width:1.0;stroke-dasharray:7.0,7.0;"/><polygon fill="#181818" points="279.37,92.3564,270.37,88.3564,274.37,92.3564,270.37,96.3564,279.37,92.3564" style="stroke:#181818;stroke-width:1.0;"/><text fill="#000000" font-family="sans-serif" font-size="13" lengthAdjust="spacing" textLength="85" x="155" y="20.8516">pasa el tiempo</text><text fill="#000000" font-family="sans-serif" font-size="13" lengthAdjust="spacing" textLength="127" x="134" y="37.2031">cambia el ecosistema</text><text fill="#000000" font-family="sans-serif" font-size="13" lengthAdjust="spacing" textLength="4" x="195.5" y="53.5547"> </text><text fill="#000000" font-family="sans-serif" font-size="13" lengthAdjust="spacing" textLength="4" x="195.5" y="69.9063"> </text><text fill="#000000" font-family="sans-serif" font-size="13" lengthAdjust="spacing" textLength="4" x="195.5" y="86.2578"> </text></g><!--MD5=[1cdf162b52fe4abd647d1fe6035e808e]
reverse link Empresav001 to Estrategiav001--><g id="link_Empresav001_Estrategiav001"><path codeLine="5" d="M70.28,111.9164 C71.43,128.5664 73.09,152.5964 74.1,167.3064 " fill="none" id="Empresav001-backto-Estrategiav001" style="stroke:#181818;stroke-width:1.0;"/><polygon fill="#181818" points="69.91,106.5664,66.5369,115.8197,70.253,111.5547,74.518,115.2708,69.91,106.5664" style="stroke:#181818;stroke-width:1.0;"/></g><!--MD5=[6c20abbe62f93253cad426b8db619cdc]
link Estrategiav001 to Planificacionv001--><g id="link_Estrategiav001_Planificacionv001"><path codeLine="6" d="M75.76,195.5664 C76.7,212.0164 78.31,239.9364 79.25,256.3064 " fill="none" id="Estrategiav001-Planificacionv001" style="stroke:#181818;stroke-width:1.0;"/></g><!--MD5=[0d5027325036a17c4588caee691ef37e]
reverse link Empresav002 to Estrategiav002--><g id="link_Empresav002_Estrategiav002"><path codeLine="8" d="M324.93,111.9164 C323.98,128.5664 322.6,152.5964 321.75,167.3064 " fill="none" id="Empresav002-backto-Estrategiav002" style="stroke:#181818;stroke-width:1.0;"/><polygon fill="#181818" points="325.24,106.5664,320.7067,115.3099,324.9397,111.5574,328.6922,115.7904,325.24,106.5664" style="stroke:#181818;stroke-width:1.0;"/></g><!--MD5=[f21a2d565f2253ce2f613fd97d9cad59]
link Estrategiav002 to Planificacionv002--><g id="link_Estrategiav002_Planificacionv002"><path codeLine="9" d="M320.09,195.5664 C318.95,212.0164 317.03,239.9364 315.9,256.3064 " fill="none" id="Estrategiav002-Planificacionv002" style="stroke:#181818;stroke-width:1.0;"/></g><!--MD5=[7e4eca3ac1e54221b2cc8cec71921d90]
link Estrategiav001 to Innovación--><g id="link_Estrategiav001_Innovación"><path codeLine="11" d="M125.93,181.3564 C137.57,181.3564 149.2,181.3564 160.84,181.3564 " fill="none" id="Estrategiav001-Innovación" style="stroke:#181818;stroke-width:1.0;"/></g><!--MD5=[b5fbb614630516c912224dda3f53342e]
link Innovación to Estrategiav002--><g id="link_Innovación_Estrategiav002"><path codeLine="12" d="M235.48,181.3564 C247.06,181.3564 258.64,181.3564 270.22,181.3564 " fill="none" id="Innovación-Estrategiav002" style="stroke:#181818;stroke-width:1.0;"/></g><!--MD5=[3f1fa2a7c6043b41f463422671f6470a]
@startuml
package Empresa {

Empresav001 ...r...> Empresav002:pasa el tiempo\ncambia el ecosistema\n\n\n

Empresav001 <-d- Estrategiav001
Estrategiav001 -d- Planificacionv001

Empresav002 <-d- Estrategiav002
Estrategiav002 -d- Planificacionv002

Estrategiav001 -r- Innovación
Innovación -r- Estrategiav002

}


hide class circle
hide empty members
@enduml

PlantUML version 1.2022.7(Mon Aug 22 19:01:30 CEST 2022)
(GPL source distribution)
Java Runtime: Java(TM) SE Runtime Environment
JVM: Java HotSpot(TM) 64-Bit Server VM
Default Encoding: UTF-8
Language: es
Country: ES
--></g></svg>