<?xml version="1.0" encoding="UTF-8" standalone="no"?><svg xmlns="http://www.w3.org/2000/svg" xmlns:xlink="http://www.w3.org/1999/xlink" contentStyleType="text/css" height="150px" preserveAspectRatio="none" style="width:607px;height:150px;background:#FFFFFF;" version="1.1" viewBox="0 0 607 150" width="607px" zoomAndPan="magnify"><defs/><g><!--MD5=[7d0e5ddd73bd8fec86b8967827845935]
class Empresa--><g id="elem_Empresa"><rect codeLine="1" fill="#F1F1F1" height="48" id="Empresa" rx="2.5" ry="2.5" style="stroke:#181818;stroke-width:0.5;" width="88" x="246.5" y="51"/><ellipse cx="261.5" cy="67" fill="#ADD1B2" rx="11" ry="11" style="stroke:#181818;stroke-width:1.0;"/><path d="M264.2656,62.875 Q264.4219,62.6563 264.6094,62.5469 Q264.7969,62.4375 265.0156,62.4375 Q265.3906,62.4375 265.625,62.7031 Q265.8594,62.9531 265.8594,63.5625 L265.8594,65.0156 Q265.8594,65.625 265.625,65.8906 Q265.3906,66.1563 265.0156,66.1563 Q264.6719,66.1563 264.4688,65.9531 Q264.2656,65.7656 264.1563,65.25 Q264.1094,64.8906 263.9219,64.7031 Q263.5938,64.3281 262.9844,64.1094 Q262.375,63.8906 261.75,63.8906 Q260.9844,63.8906 260.3438,64.2188 Q259.7188,64.5469 259.2188,65.2969 Q258.7344,66.0469 258.7344,67.0781 L258.7344,68.1719 Q258.7344,69.4063 259.625,70.2344 Q260.5156,71.0469 262.1094,71.0469 Q263.0469,71.0469 263.7031,70.7969 Q264.0938,70.6406 264.5156,70.2031 Q264.7813,69.9375 264.9219,69.8594 Q265.0781,69.7813 265.2813,69.7813 Q265.6094,69.7813 265.8594,70.0469 Q266.125,70.2969 266.125,70.6406 Q266.125,70.9844 265.7813,71.3906 Q265.2813,71.9688 264.4844,72.2969 Q263.4063,72.75 262.1094,72.75 Q260.5938,72.75 259.3906,72.125 Q258.4063,71.625 257.7188,70.5625 Q257.0313,69.4844 257.0313,68.2031 L257.0313,67.0469 Q257.0313,65.7188 257.6406,64.5781 Q258.2656,63.4219 259.3594,62.8125 Q260.4531,62.1875 261.6875,62.1875 Q262.4219,62.1875 263.0625,62.3594 Q263.7188,62.5156 264.2656,62.875 Z " fill="#000000"/><text fill="#000000" font-family="sans-serif" font-size="14" lengthAdjust="spacing" textLength="56" x="275.5" y="72.7285">Empresa</text><line style="stroke:#181818;stroke-width:0.5;" x1="247.5" x2="333.5" y1="83" y2="83"/><line style="stroke:#181818;stroke-width:0.5;" x1="247.5" x2="333.5" y1="91" y2="91"/></g><!--MD5=[8b24f5a8f8af46f7b7b165e59b045d19]
class Estrategia--><g id="elem_Estrategia"><rect codeLine="3" fill="#F1F1F1" height="136.0469" id="Estrategia" rx="2.5" ry="2.5" style="stroke:#181818;stroke-width:0.5;" width="175" x="7" y="7"/><ellipse cx="58.25" cy="23" fill="#ADD1B2" rx="11" ry="11" style="stroke:#181818;stroke-width:1.0;"/><path d="M61.0156,18.875 Q61.1719,18.6563 61.3594,18.5469 Q61.5469,18.4375 61.7656,18.4375 Q62.1406,18.4375 62.375,18.7031 Q62.6094,18.9531 62.6094,19.5625 L62.6094,21.0156 Q62.6094,21.625 62.375,21.8906 Q62.1406,22.1563 61.7656,22.1563 Q61.4219,22.1563 61.2188,21.9531 Q61.0156,21.7656 60.9063,21.25 Q60.8594,20.8906 60.6719,20.7031 Q60.3438,20.3281 59.7344,20.1094 Q59.125,19.8906 58.5,19.8906 Q57.7344,19.8906 57.0938,20.2188 Q56.4688,20.5469 55.9688,21.2969 Q55.4844,22.0469 55.4844,23.0781 L55.4844,24.1719 Q55.4844,25.4063 56.375,26.2344 Q57.2656,27.0469 58.8594,27.0469 Q59.7969,27.0469 60.4531,26.7969 Q60.8438,26.6406 61.2656,26.2031 Q61.5313,25.9375 61.6719,25.8594 Q61.8281,25.7813 62.0313,25.7813 Q62.3594,25.7813 62.6094,26.0469 Q62.875,26.2969 62.875,26.6406 Q62.875,26.9844 62.5313,27.3906 Q62.0313,27.9688 61.2344,28.2969 Q60.1563,28.75 58.8594,28.75 Q57.3438,28.75 56.1406,28.125 Q55.1563,27.625 54.4688,26.5625 Q53.7813,25.4844 53.7813,24.2031 L53.7813,23.0469 Q53.7813,21.7188 54.3906,20.5781 Q55.0156,19.4219 56.1094,18.8125 Q57.2031,18.1875 58.4375,18.1875 Q59.1719,18.1875 59.8125,18.3594 Q60.4688,18.5156 61.0156,18.875 Z " fill="#000000"/><text fill="#000000" font-family="sans-serif" font-size="14" lengthAdjust="spacing" textLength="64" x="78.75" y="28.7285">Estrategia</text><line style="stroke:#181818;stroke-width:0.5;" x1="8" x2="181" y1="39" y2="39"/><text fill="#000000" font-family="sans-serif" font-size="14" lengthAdjust="spacing" textLength="59" x="13" y="57.5332">Dirección</text><text fill="#000000" font-family="sans-serif" font-size="14" lengthAdjust="spacing" textLength="90" x="13" y="75.1426">Diferenciacion</text><text fill="#000000" font-family="sans-serif" font-size="14" lengthAdjust="spacing" textLength="163" x="13" y="92.752">GestiónRecursosEficiente</text><text fill="#000000" font-family="sans-serif" font-size="14" lengthAdjust="spacing" textLength="70" x="13" y="110.3613">Flexibilidad</text><text fill="#000000" font-family="sans-serif" font-size="14" lengthAdjust="spacing" textLength="100" x="13" y="127.9707">MejoraContinua</text><line style="stroke:#181818;stroke-width:0.5;" x1="8" x2="181" y1="135.0469" y2="135.0469"/></g><!--MD5=[7771e62474b0382ee524a29783486a31]
class Planificación--><g id="elem_Planificación"><rect codeLine="11" fill="#F1F1F1" height="136.0469" id="Planificación" rx="2.5" ry="2.5" style="stroke:#181818;stroke-width:0.5;" width="173" x="427" y="7"/><ellipse cx="469.9" cy="23" fill="#ADD1B2" rx="11" ry="11" style="stroke:#181818;stroke-width:1.0;"/><path d="M472.6656,18.875 Q472.8219,18.6563 473.0094,18.5469 Q473.1969,18.4375 473.4156,18.4375 Q473.7906,18.4375 474.025,18.7031 Q474.2594,18.9531 474.2594,19.5625 L474.2594,21.0156 Q474.2594,21.625 474.025,21.8906 Q473.7906,22.1563 473.4156,22.1563 Q473.0719,22.1563 472.8688,21.9531 Q472.6656,21.7656 472.5563,21.25 Q472.5094,20.8906 472.3219,20.7031 Q471.9938,20.3281 471.3844,20.1094 Q470.775,19.8906 470.15,19.8906 Q469.3844,19.8906 468.7438,20.2188 Q468.1188,20.5469 467.6188,21.2969 Q467.1344,22.0469 467.1344,23.0781 L467.1344,24.1719 Q467.1344,25.4063 468.025,26.2344 Q468.9156,27.0469 470.5094,27.0469 Q471.4469,27.0469 472.1031,26.7969 Q472.4938,26.6406 472.9156,26.2031 Q473.1813,25.9375 473.3219,25.8594 Q473.4781,25.7813 473.6813,25.7813 Q474.0094,25.7813 474.2594,26.0469 Q474.525,26.2969 474.525,26.6406 Q474.525,26.9844 474.1813,27.3906 Q473.6813,27.9688 472.8844,28.2969 Q471.8063,28.75 470.5094,28.75 Q468.9938,28.75 467.7906,28.125 Q466.8063,27.625 466.1188,26.5625 Q465.4313,25.4844 465.4313,24.2031 L465.4313,23.0469 Q465.4313,21.7188 466.0406,20.5781 Q466.6656,19.4219 467.7594,18.8125 Q468.8531,18.1875 470.0875,18.1875 Q470.8219,18.1875 471.4625,18.3594 Q472.1188,18.5156 472.6656,18.875 Z " fill="#000000"/><text fill="#000000" font-family="sans-serif" font-size="14" lengthAdjust="spacing" textLength="79" x="490.1" y="28.7285">Planificación</text><line style="stroke:#181818;stroke-width:0.5;" x1="428" x2="599" y1="39" y2="39"/><text fill="#000000" font-family="sans-serif" font-size="14" lengthAdjust="spacing" textLength="100" x="433" y="57.5332">ObjetivosClaros</text><text fill="#000000" font-family="sans-serif" font-size="14" lengthAdjust="spacing" textLength="147" x="433" y="75.1426">AsignaciónDeRecursos</text><text fill="#000000" font-family="sans-serif" font-size="14" lengthAdjust="spacing" textLength="161" x="433" y="92.752">AnticipaciónDeProblemas</text><text fill="#000000" font-family="sans-serif" font-size="14" lengthAdjust="spacing" textLength="103" x="433" y="110.3613">MejoraEficiencia</text><text fill="#000000" font-family="sans-serif" font-size="14" lengthAdjust="spacing" textLength="158" x="433" y="127.9707">MejorTomaDeDecisiones</text><line style="stroke:#181818;stroke-width:0.5;" x1="428" x2="599" y1="135.0469" y2="135.0469"/></g><!--MD5=[e84d49905efe192c0fbfcf2d67c5cc9a]
link Estrategia to Empresa--><g id="link_Estrategia_Empresa"><path codeLine="19" d="M182.18,75 C202.32,75 223.04,75 240.9,75 " fill="none" id="Estrategia-to-Empresa" style="stroke:#181818;stroke-width:1.0;"/><polygon fill="#181818" points="246.35,75,237.35,71,241.35,75,237.35,79,246.35,75" style="stroke:#181818;stroke-width:1.0;"/><text fill="#000000" font-family="sans-serif" font-size="13" lengthAdjust="spacing" textLength="28" x="200.25" y="68.4951">clara</text></g><!--MD5=[9852ca93c35272debaea89851a6ddae6]
reverse link Empresa to Planificación--><g id="link_Empresa_Planificación"><path codeLine="20" d="M339.58,75 C365.11,75 397.08,75 426.63,75 " fill="none" id="Empresa-backto-Planificación" style="stroke:#181818;stroke-width:1.0;"/><polygon fill="#181818" points="334.56,75,343.56,79,339.56,75,343.56,71,334.56,75" style="stroke:#181818;stroke-width:1.0;"/><text fill="#000000" font-family="sans-serif" font-size="13" lengthAdjust="spacing" textLength="56" x="352.75" y="68.4951">adecuada</text></g><!--MD5=[fb76e13ae2721557f20a76b5ee378350]
@startuml
class Empresa

class Estrategia {
    Dirección
    Diferenciacion
    GestiónRecursosEficiente
    Flexibilidad
    MejoraContinua
}

class Planificación{
    ObjetivosClaros
    AsignaciónDeRecursos
    AnticipaciónDeProblemas
    MejoraEficiencia
    MejorTomaDeDecisiones
}

Estrategia - -r-> Empresa:clara
Planificación - -l-> Empresa:adecuada
@enduml

PlantUML version 1.2022.7(Mon Aug 22 19:01:30 CEST 2022)
(GPL source distribution)
Java Runtime: Java(TM) SE Runtime Environment
JVM: Java HotSpot(TM) 64-Bit Server VM
Default Encoding: UTF-8
Language: es
Country: ES
--></g></svg>