<?xml version="1.0" encoding="UTF-8" standalone="no"?><svg xmlns="http://www.w3.org/2000/svg" xmlns:xlink="http://www.w3.org/1999/xlink" contentStyleType="text/css" height="220px" preserveAspectRatio="none" style="width:673px;height:220px;background:#FFFFFF;" version="1.1" viewBox="0 0 673 220" width="673px" zoomAndPan="magnify"><defs/><g><!--MD5=[7d0e5ddd73bd8fec86b8967827845935]
class Empresa--><g id="elem_Empresa"><rect codeLine="1" fill="#F1F1F1" height="48" id="Empresa" rx="2.5" ry="2.5" style="stroke:#181818;stroke-width:0.5;" width="88" x="268.5" y="86"/><ellipse cx="283.5" cy="102" fill="#ADD1B2" rx="11" ry="11" style="stroke:#181818;stroke-width:1.0;"/><path d="M286.2656,97.875 Q286.4219,97.6563 286.6094,97.5469 Q286.7969,97.4375 287.0156,97.4375 Q287.3906,97.4375 287.625,97.7031 Q287.8594,97.9531 287.8594,98.5625 L287.8594,100.0156 Q287.8594,100.625 287.625,100.8906 Q287.3906,101.1563 287.0156,101.1563 Q286.6719,101.1563 286.4688,100.9531 Q286.2656,100.7656 286.1563,100.25 Q286.1094,99.8906 285.9219,99.7031 Q285.5938,99.3281 284.9844,99.1094 Q284.375,98.8906 283.75,98.8906 Q282.9844,98.8906 282.3438,99.2188 Q281.7188,99.5469 281.2188,100.2969 Q280.7344,101.0469 280.7344,102.0781 L280.7344,103.1719 Q280.7344,104.4063 281.625,105.2344 Q282.5156,106.0469 284.1094,106.0469 Q285.0469,106.0469 285.7031,105.7969 Q286.0938,105.6406 286.5156,105.2031 Q286.7813,104.9375 286.9219,104.8594 Q287.0781,104.7813 287.2813,104.7813 Q287.6094,104.7813 287.8594,105.0469 Q288.125,105.2969 288.125,105.6406 Q288.125,105.9844 287.7813,106.3906 Q287.2813,106.9688 286.4844,107.2969 Q285.4063,107.75 284.1094,107.75 Q282.5938,107.75 281.3906,107.125 Q280.4063,106.625 279.7188,105.5625 Q279.0313,104.4844 279.0313,103.2031 L279.0313,102.0469 Q279.0313,100.7188 279.6406,99.5781 Q280.2656,98.4219 281.3594,97.8125 Q282.4531,97.1875 283.6875,97.1875 Q284.4219,97.1875 285.0625,97.3594 Q285.7188,97.5156 286.2656,97.875 Z " fill="#000000"/><text fill="#000000" font-family="sans-serif" font-size="14" lengthAdjust="spacing" textLength="56" x="297.5" y="107.7285">Empresa</text><line style="stroke:#181818;stroke-width:0.5;" x1="269.5" x2="355.5" y1="118" y2="118"/><line style="stroke:#181818;stroke-width:0.5;" x1="269.5" x2="355.5" y1="126" y2="126"/></g><!--MD5=[8b24f5a8f8af46f7b7b165e59b045d19]
class Estrategia--><g id="elem_Estrategia"><rect codeLine="3" fill="#F1F1F1" height="206.4844" id="Estrategia" rx="2.5" ry="2.5" style="stroke:#181818;stroke-width:0.5;" width="197" x="7" y="7"/><ellipse cx="69.25" cy="23" fill="#ADD1B2" rx="11" ry="11" style="stroke:#181818;stroke-width:1.0;"/><path d="M72.0156,18.875 Q72.1719,18.6563 72.3594,18.5469 Q72.5469,18.4375 72.7656,18.4375 Q73.1406,18.4375 73.375,18.7031 Q73.6094,18.9531 73.6094,19.5625 L73.6094,21.0156 Q73.6094,21.625 73.375,21.8906 Q73.1406,22.1563 72.7656,22.1563 Q72.4219,22.1563 72.2188,21.9531 Q72.0156,21.7656 71.9063,21.25 Q71.8594,20.8906 71.6719,20.7031 Q71.3438,20.3281 70.7344,20.1094 Q70.125,19.8906 69.5,19.8906 Q68.7344,19.8906 68.0938,20.2188 Q67.4688,20.5469 66.9688,21.2969 Q66.4844,22.0469 66.4844,23.0781 L66.4844,24.1719 Q66.4844,25.4063 67.375,26.2344 Q68.2656,27.0469 69.8594,27.0469 Q70.7969,27.0469 71.4531,26.7969 Q71.8438,26.6406 72.2656,26.2031 Q72.5313,25.9375 72.6719,25.8594 Q72.8281,25.7813 73.0313,25.7813 Q73.3594,25.7813 73.6094,26.0469 Q73.875,26.2969 73.875,26.6406 Q73.875,26.9844 73.5313,27.3906 Q73.0313,27.9688 72.2344,28.2969 Q71.1563,28.75 69.8594,28.75 Q68.3438,28.75 67.1406,28.125 Q66.1563,27.625 65.4688,26.5625 Q64.7813,25.4844 64.7813,24.2031 L64.7813,23.0469 Q64.7813,21.7188 65.3906,20.5781 Q66.0156,19.4219 67.1094,18.8125 Q68.2031,18.1875 69.4375,18.1875 Q70.1719,18.1875 70.8125,18.3594 Q71.4688,18.5156 72.0156,18.875 Z " fill="#000000"/><text fill="#000000" font-family="sans-serif" font-size="14" lengthAdjust="spacing" textLength="64" x="89.75" y="28.7285">Estrategia</text><line style="stroke:#181818;stroke-width:0.5;" x1="8" x2="203" y1="39" y2="39"/><text fill="#000000" font-family="sans-serif" font-size="14" lengthAdjust="spacing" textLength="94" x="13" y="57.5332">Dirección clara</text><text fill="#000000" font-family="sans-serif" font-size="14" lengthAdjust="spacing" textLength="4" x="13" y="75.1426"> </text><text fill="#000000" font-family="sans-serif" font-size="14" lengthAdjust="spacing" textLength="185" x="13" y="92.752">Gestión de recursos eficiente</text><text fill="#000000" font-family="sans-serif" font-size="14" lengthAdjust="spacing" textLength="4" x="13" y="110.3613"> </text><text fill="#000000" font-family="sans-serif" font-size="14" lengthAdjust="spacing" textLength="90" x="13" y="127.9707">Diferenciación</text><text fill="#000000" font-family="sans-serif" font-size="14" lengthAdjust="spacing" textLength="4" x="13" y="145.5801"> </text><text fill="#000000" font-family="sans-serif" font-size="14" lengthAdjust="spacing" textLength="70" x="13" y="163.1895">Flexibilidad</text><text fill="#000000" font-family="sans-serif" font-size="14" lengthAdjust="spacing" textLength="4" x="13" y="180.7988"> </text><text fill="#000000" font-family="sans-serif" font-size="14" lengthAdjust="spacing" textLength="101" x="13" y="198.4082">Mejora continua</text><line style="stroke:#181818;stroke-width:0.5;" x1="8" x2="203" y1="205.4844" y2="205.4844"/></g><!--MD5=[7771e62474b0382ee524a29783486a31]
class Planificación--><g id="elem_Planificación"><rect codeLine="15" fill="#F1F1F1" height="206.4844" id="Planificación" rx="2.5" ry="2.5" style="stroke:#181818;stroke-width:0.5;" width="217" x="449" y="7"/><ellipse cx="513.75" cy="23" fill="#ADD1B2" rx="11" ry="11" style="stroke:#181818;stroke-width:1.0;"/><path d="M516.5156,18.875 Q516.6719,18.6563 516.8594,18.5469 Q517.0469,18.4375 517.2656,18.4375 Q517.6406,18.4375 517.875,18.7031 Q518.1094,18.9531 518.1094,19.5625 L518.1094,21.0156 Q518.1094,21.625 517.875,21.8906 Q517.6406,22.1563 517.2656,22.1563 Q516.9219,22.1563 516.7188,21.9531 Q516.5156,21.7656 516.4063,21.25 Q516.3594,20.8906 516.1719,20.7031 Q515.8438,20.3281 515.2344,20.1094 Q514.625,19.8906 514,19.8906 Q513.2344,19.8906 512.5938,20.2188 Q511.9688,20.5469 511.4688,21.2969 Q510.9844,22.0469 510.9844,23.0781 L510.9844,24.1719 Q510.9844,25.4063 511.875,26.2344 Q512.7656,27.0469 514.3594,27.0469 Q515.2969,27.0469 515.9531,26.7969 Q516.3438,26.6406 516.7656,26.2031 Q517.0313,25.9375 517.1719,25.8594 Q517.3281,25.7813 517.5313,25.7813 Q517.8594,25.7813 518.1094,26.0469 Q518.375,26.2969 518.375,26.6406 Q518.375,26.9844 518.0313,27.3906 Q517.5313,27.9688 516.7344,28.2969 Q515.6563,28.75 514.3594,28.75 Q512.8438,28.75 511.6406,28.125 Q510.6563,27.625 509.9688,26.5625 Q509.2813,25.4844 509.2813,24.2031 L509.2813,23.0469 Q509.2813,21.7188 509.8906,20.5781 Q510.5156,19.4219 511.6094,18.8125 Q512.7031,18.1875 513.9375,18.1875 Q514.6719,18.1875 515.3125,18.3594 Q515.9688,18.5156 516.5156,18.875 Z " fill="#000000"/><text fill="#000000" font-family="sans-serif" font-size="14" lengthAdjust="spacing" textLength="79" x="534.25" y="28.7285">Planificación</text><line style="stroke:#181818;stroke-width:0.5;" x1="450" x2="665" y1="39" y2="39"/><text fill="#000000" font-family="sans-serif" font-size="14" lengthAdjust="spacing" textLength="101" x="455" y="57.5332">Objetivos claros</text><text fill="#000000" font-family="sans-serif" font-size="14" lengthAdjust="spacing" textLength="4" x="455" y="75.1426"> </text><text fill="#000000" font-family="sans-serif" font-size="14" lengthAdjust="spacing" textLength="205" x="455" y="92.752">Asignación de recursos eficiente</text><text fill="#000000" font-family="sans-serif" font-size="14" lengthAdjust="spacing" textLength="4" x="455" y="110.3613"> </text><text fill="#000000" font-family="sans-serif" font-size="14" lengthAdjust="spacing" textLength="180" x="455" y="127.9707">Anticipación a los problemas</text><text fill="#000000" font-family="sans-serif" font-size="14" lengthAdjust="spacing" textLength="4" x="455" y="145.5801"> </text><text fill="#000000" font-family="sans-serif" font-size="14" lengthAdjust="spacing" textLength="141" x="455" y="163.1895">Mejora de la eficiencia</text><text fill="#000000" font-family="sans-serif" font-size="14" lengthAdjust="spacing" textLength="4" x="455" y="180.7988"> </text><text fill="#000000" font-family="sans-serif" font-size="14" lengthAdjust="spacing" textLength="161" x="455" y="198.4082">Mejor toma de decisiones</text><line style="stroke:#181818;stroke-width:0.5;" x1="450" x2="665" y1="205.4844" y2="205.4844"/></g><!--MD5=[e84d49905efe192c0fbfcf2d67c5cc9a]
link Estrategia to Empresa--><g id="link_Estrategia_Empresa"><path codeLine="29" d="M204.15,110 C224.53,110 245.17,110 262.88,110 " fill="none" id="Estrategia-to-Empresa" style="stroke:#181818;stroke-width:1.0;"/><polygon fill="#181818" points="268.28,110,259.28,106,263.28,110,259.28,114,268.28,110" style="stroke:#181818;stroke-width:1.0;"/><text fill="#000000" font-family="sans-serif" font-size="13" lengthAdjust="spacing" textLength="28" x="222.25" y="103.4951">clara</text></g><!--MD5=[9852ca93c35272debaea89851a6ddae6]
reverse link Empresa to Planificación--><g id="link_Empresa_Planificación"><path codeLine="30" d="M361.83,110 C386.91,110 418.43,110 448.81,110 " fill="none" id="Empresa-backto-Planificación" style="stroke:#181818;stroke-width:1.0;"/><polygon fill="#181818" points="356.58,110,365.58,114,361.58,110,365.58,106,356.58,110" style="stroke:#181818;stroke-width:1.0;"/><text fill="#000000" font-family="sans-serif" font-size="13" lengthAdjust="spacing" textLength="56" x="374.75" y="103.4951">adecuada</text></g><!--MD5=[24f12006b9368018ae95ad334ae9d465]
@startuml
class Empresa

class Estrategia {
    Dirección clara

    Gestión de recursos eficiente

    Diferenciación

    Flexibilidad

    Mejora continua
}

class Planificación{

    Objetivos claros

    Asignación de recursos eficiente
    
    Anticipación a los problemas
    
    Mejora de la eficiencia
    
    Mejor toma de decisiones

}

Estrategia - -r-> Empresa:clara
Planificación - -l-> Empresa:adecuada
@enduml

PlantUML version 1.2022.7(Mon Aug 22 19:01:30 CEST 2022)
(GPL source distribution)
Java Runtime: Java(TM) SE Runtime Environment
JVM: Java HotSpot(TM) 64-Bit Server VM
Default Encoding: UTF-8
Language: es
Country: ES
--></g></svg>