<?xml version="1.0" encoding="UTF-8" standalone="no"?><svg xmlns="http://www.w3.org/2000/svg" xmlns:xlink="http://www.w3.org/1999/xlink" contentStyleType="text/css" height="522px" preserveAspectRatio="none" style="width:993px;height:522px;background:#FFFFFF;" version="1.1" viewBox="0 0 993 522" width="993px" zoomAndPan="magnify"><defs/><g><!--MD5=[a57bd1032262edb96b7e0f2b6442fcba]
class CEO--><g id="elem_CEO"><rect codeLine="1" fill="#F1F1F1" height="83.2188" id="CEO" rx="2.5" ry="2.5" style="stroke:#181818;stroke-width:0.5;" width="196" x="16.5" y="7"/><ellipse cx="95.25" cy="23" fill="#ADD1B2" rx="11" ry="11" style="stroke:#181818;stroke-width:1.0;"/><path d="M98.0156,18.875 Q98.1719,18.6563 98.3594,18.5469 Q98.5469,18.4375 98.7656,18.4375 Q99.1406,18.4375 99.375,18.7031 Q99.6094,18.9531 99.6094,19.5625 L99.6094,21.0156 Q99.6094,21.625 99.375,21.8906 Q99.1406,22.1563 98.7656,22.1563 Q98.4219,22.1563 98.2188,21.9531 Q98.0156,21.7656 97.9063,21.25 Q97.8594,20.8906 97.6719,20.7031 Q97.3438,20.3281 96.7344,20.1094 Q96.125,19.8906 95.5,19.8906 Q94.7344,19.8906 94.0938,20.2188 Q93.4688,20.5469 92.9688,21.2969 Q92.4844,22.0469 92.4844,23.0781 L92.4844,24.1719 Q92.4844,25.4063 93.375,26.2344 Q94.2656,27.0469 95.8594,27.0469 Q96.7969,27.0469 97.4531,26.7969 Q97.8438,26.6406 98.2656,26.2031 Q98.5313,25.9375 98.6719,25.8594 Q98.8281,25.7813 99.0313,25.7813 Q99.3594,25.7813 99.6094,26.0469 Q99.875,26.2969 99.875,26.6406 Q99.875,26.9844 99.5313,27.3906 Q99.0313,27.9688 98.2344,28.2969 Q97.1563,28.75 95.8594,28.75 Q94.3438,28.75 93.1406,28.125 Q92.1563,27.625 91.4688,26.5625 Q90.7813,25.4844 90.7813,24.2031 L90.7813,23.0469 Q90.7813,21.7188 91.3906,20.5781 Q92.0156,19.4219 93.1094,18.8125 Q94.2031,18.1875 95.4375,18.1875 Q96.1719,18.1875 96.8125,18.3594 Q97.4688,18.5156 98.0156,18.875 Z " fill="#000000"/><text fill="#000000" font-family="sans-serif" font-size="14" lengthAdjust="spacing" textLength="30" x="115.75" y="28.7285">CEO</text><line style="stroke:#181818;stroke-width:0.5;" x1="17.5" x2="211.5" y1="39" y2="39"/><text fill="#000000" font-family="sans-serif" font-size="14" lengthAdjust="spacing" textLength="184" x="22.5" y="57.5332">CHIEF EXECUTIVE OFFICER</text><text fill="#000000" font-family="sans-serif" font-size="14" lengthAdjust="spacing" textLength="111" x="22.5" y="75.1426">Director Ejecutivo</text><line style="stroke:#181818;stroke-width:0.5;" x1="17.5" x2="211.5" y1="82.2188" y2="82.2188"/></g><!--MD5=[ccac9bd22138a3e13de7435a834e3717]
class COO--><g id="elem_COO"><rect codeLine="6" fill="#F1F1F1" height="83.2188" id="COO" rx="2.5" ry="2.5" style="stroke:#181818;stroke-width:0.5;" width="201" x="248" y="7"/><ellipse cx="328.25" cy="23" fill="#ADD1B2" rx="11" ry="11" style="stroke:#181818;stroke-width:1.0;"/><path d="M331.0156,18.875 Q331.1719,18.6563 331.3594,18.5469 Q331.5469,18.4375 331.7656,18.4375 Q332.1406,18.4375 332.375,18.7031 Q332.6094,18.9531 332.6094,19.5625 L332.6094,21.0156 Q332.6094,21.625 332.375,21.8906 Q332.1406,22.1563 331.7656,22.1563 Q331.4219,22.1563 331.2188,21.9531 Q331.0156,21.7656 330.9063,21.25 Q330.8594,20.8906 330.6719,20.7031 Q330.3438,20.3281 329.7344,20.1094 Q329.125,19.8906 328.5,19.8906 Q327.7344,19.8906 327.0938,20.2188 Q326.4688,20.5469 325.9688,21.2969 Q325.4844,22.0469 325.4844,23.0781 L325.4844,24.1719 Q325.4844,25.4063 326.375,26.2344 Q327.2656,27.0469 328.8594,27.0469 Q329.7969,27.0469 330.4531,26.7969 Q330.8438,26.6406 331.2656,26.2031 Q331.5313,25.9375 331.6719,25.8594 Q331.8281,25.7813 332.0313,25.7813 Q332.3594,25.7813 332.6094,26.0469 Q332.875,26.2969 332.875,26.6406 Q332.875,26.9844 332.5313,27.3906 Q332.0313,27.9688 331.2344,28.2969 Q330.1563,28.75 328.8594,28.75 Q327.3438,28.75 326.1406,28.125 Q325.1563,27.625 324.4688,26.5625 Q323.7813,25.4844 323.7813,24.2031 L323.7813,23.0469 Q323.7813,21.7188 324.3906,20.5781 Q325.0156,19.4219 326.1094,18.8125 Q327.2031,18.1875 328.4375,18.1875 Q329.1719,18.1875 329.8125,18.3594 Q330.4688,18.5156 331.0156,18.875 Z " fill="#000000"/><text fill="#000000" font-family="sans-serif" font-size="14" lengthAdjust="spacing" textLength="32" x="348.75" y="28.7285">COO</text><line style="stroke:#181818;stroke-width:0.5;" x1="249" x2="448" y1="39" y2="39"/><text fill="#000000" font-family="sans-serif" font-size="14" lengthAdjust="spacing" textLength="189" x="254" y="57.5332">CHIEF OPERATING OFFICER</text><text fill="#000000" font-family="sans-serif" font-size="14" lengthAdjust="spacing" textLength="155" x="254" y="75.1426">Director de Operaciones</text><line style="stroke:#181818;stroke-width:0.5;" x1="249" x2="448" y1="82.2188" y2="82.2188"/></g><!--MD5=[faaa53f2f9c145c4677836621c2dfdfc]
class CMO--><g id="elem_CMO"><rect codeLine="11" fill="#F1F1F1" height="83.2188" id="CMO" rx="2.5" ry="2.5" style="stroke:#181818;stroke-width:0.5;" width="201" x="484" y="7"/><ellipse cx="564.25" cy="23" fill="#ADD1B2" rx="11" ry="11" style="stroke:#181818;stroke-width:1.0;"/><path d="M567.0156,18.875 Q567.1719,18.6563 567.3594,18.5469 Q567.5469,18.4375 567.7656,18.4375 Q568.1406,18.4375 568.375,18.7031 Q568.6094,18.9531 568.6094,19.5625 L568.6094,21.0156 Q568.6094,21.625 568.375,21.8906 Q568.1406,22.1563 567.7656,22.1563 Q567.4219,22.1563 567.2188,21.9531 Q567.0156,21.7656 566.9063,21.25 Q566.8594,20.8906 566.6719,20.7031 Q566.3438,20.3281 565.7344,20.1094 Q565.125,19.8906 564.5,19.8906 Q563.7344,19.8906 563.0938,20.2188 Q562.4688,20.5469 561.9688,21.2969 Q561.4844,22.0469 561.4844,23.0781 L561.4844,24.1719 Q561.4844,25.4063 562.375,26.2344 Q563.2656,27.0469 564.8594,27.0469 Q565.7969,27.0469 566.4531,26.7969 Q566.8438,26.6406 567.2656,26.2031 Q567.5313,25.9375 567.6719,25.8594 Q567.8281,25.7813 568.0313,25.7813 Q568.3594,25.7813 568.6094,26.0469 Q568.875,26.2969 568.875,26.6406 Q568.875,26.9844 568.5313,27.3906 Q568.0313,27.9688 567.2344,28.2969 Q566.1563,28.75 564.8594,28.75 Q563.3438,28.75 562.1406,28.125 Q561.1563,27.625 560.4688,26.5625 Q559.7813,25.4844 559.7813,24.2031 L559.7813,23.0469 Q559.7813,21.7188 560.3906,20.5781 Q561.0156,19.4219 562.1094,18.8125 Q563.2031,18.1875 564.4375,18.1875 Q565.1719,18.1875 565.8125,18.3594 Q566.4688,18.5156 567.0156,18.875 Z " fill="#000000"/><text fill="#000000" font-family="sans-serif" font-size="14" lengthAdjust="spacing" textLength="32" x="584.75" y="28.7285">CMO</text><line style="stroke:#181818;stroke-width:0.5;" x1="485" x2="684" y1="39" y2="39"/><text fill="#000000" font-family="sans-serif" font-size="14" lengthAdjust="spacing" textLength="189" x="490" y="57.5332">CHIEF MARKETING OFFICER</text><text fill="#000000" font-family="sans-serif" font-size="14" lengthAdjust="spacing" textLength="136" x="490" y="75.1426">Director de Marketing</text><line style="stroke:#181818;stroke-width:0.5;" x1="485" x2="684" y1="82.2188" y2="82.2188"/></g><!--MD5=[c91c8127aba9b64414ad9fd0a673873f]
class CFO--><g id="elem_CFO"><rect codeLine="16" fill="#F1F1F1" height="83.2188" id="CFO" rx="2.5" ry="2.5" style="stroke:#181818;stroke-width:0.5;" width="190" x="720.5" y="7"/><ellipse cx="796.25" cy="23" fill="#ADD1B2" rx="11" ry="11" style="stroke:#181818;stroke-width:1.0;"/><path d="M799.0156,18.875 Q799.1719,18.6563 799.3594,18.5469 Q799.5469,18.4375 799.7656,18.4375 Q800.1406,18.4375 800.375,18.7031 Q800.6094,18.9531 800.6094,19.5625 L800.6094,21.0156 Q800.6094,21.625 800.375,21.8906 Q800.1406,22.1563 799.7656,22.1563 Q799.4219,22.1563 799.2188,21.9531 Q799.0156,21.7656 798.9063,21.25 Q798.8594,20.8906 798.6719,20.7031 Q798.3438,20.3281 797.7344,20.1094 Q797.125,19.8906 796.5,19.8906 Q795.7344,19.8906 795.0938,20.2188 Q794.4688,20.5469 793.9688,21.2969 Q793.4844,22.0469 793.4844,23.0781 L793.4844,24.1719 Q793.4844,25.4063 794.375,26.2344 Q795.2656,27.0469 796.8594,27.0469 Q797.7969,27.0469 798.4531,26.7969 Q798.8438,26.6406 799.2656,26.2031 Q799.5313,25.9375 799.6719,25.8594 Q799.8281,25.7813 800.0313,25.7813 Q800.3594,25.7813 800.6094,26.0469 Q800.875,26.2969 800.875,26.6406 Q800.875,26.9844 800.5313,27.3906 Q800.0313,27.9688 799.2344,28.2969 Q798.1563,28.75 796.8594,28.75 Q795.3438,28.75 794.1406,28.125 Q793.1563,27.625 792.4688,26.5625 Q791.7813,25.4844 791.7813,24.2031 L791.7813,23.0469 Q791.7813,21.7188 792.3906,20.5781 Q793.0156,19.4219 794.1094,18.8125 Q795.2031,18.1875 796.4375,18.1875 Q797.1719,18.1875 797.8125,18.3594 Q798.4688,18.5156 799.0156,18.875 Z " fill="#000000"/><text fill="#000000" font-family="sans-serif" font-size="14" lengthAdjust="spacing" textLength="30" x="816.75" y="28.7285">CFO</text><line style="stroke:#181818;stroke-width:0.5;" x1="721.5" x2="909.5" y1="39" y2="39"/><text fill="#000000" font-family="sans-serif" font-size="14" lengthAdjust="spacing" textLength="178" x="726.5" y="57.5332">CHIEF FINANCIAL OFFICER</text><text fill="#000000" font-family="sans-serif" font-size="14" lengthAdjust="spacing" textLength="121" x="726.5" y="75.1426">Director Financiero</text><line style="stroke:#181818;stroke-width:0.5;" x1="721.5" x2="909.5" y1="82.2188" y2="82.2188"/></g><!--MD5=[17d44d108f382f4d07806987172d59ea]
class CIO--><g id="elem_CIO"><rect codeLine="21" fill="#F1F1F1" height="83.2188" id="CIO" rx="2.5" ry="2.5" style="stroke:#181818;stroke-width:0.5;" width="215" x="7" y="219.5"/><ellipse cx="98.25" cy="235.5" fill="#ADD1B2" rx="11" ry="11" style="stroke:#181818;stroke-width:1.0;"/><path d="M101.0156,231.375 Q101.1719,231.1563 101.3594,231.0469 Q101.5469,230.9375 101.7656,230.9375 Q102.1406,230.9375 102.375,231.2031 Q102.6094,231.4531 102.6094,232.0625 L102.6094,233.5156 Q102.6094,234.125 102.375,234.3906 Q102.1406,234.6563 101.7656,234.6563 Q101.4219,234.6563 101.2188,234.4531 Q101.0156,234.2656 100.9063,233.75 Q100.8594,233.3906 100.6719,233.2031 Q100.3438,232.8281 99.7344,232.6094 Q99.125,232.3906 98.5,232.3906 Q97.7344,232.3906 97.0938,232.7188 Q96.4688,233.0469 95.9688,233.7969 Q95.4844,234.5469 95.4844,235.5781 L95.4844,236.6719 Q95.4844,237.9063 96.375,238.7344 Q97.2656,239.5469 98.8594,239.5469 Q99.7969,239.5469 100.4531,239.2969 Q100.8438,239.1406 101.2656,238.7031 Q101.5313,238.4375 101.6719,238.3594 Q101.8281,238.2813 102.0313,238.2813 Q102.3594,238.2813 102.6094,238.5469 Q102.875,238.7969 102.875,239.1406 Q102.875,239.4844 102.5313,239.8906 Q102.0313,240.4688 101.2344,240.7969 Q100.1563,241.25 98.8594,241.25 Q97.3438,241.25 96.1406,240.625 Q95.1563,240.125 94.4688,239.0625 Q93.7813,237.9844 93.7813,236.7031 L93.7813,235.5469 Q93.7813,234.2188 94.3906,233.0781 Q95.0156,231.9219 96.1094,231.3125 Q97.2031,230.6875 98.4375,230.6875 Q99.1719,230.6875 99.8125,230.8594 Q100.4688,231.0156 101.0156,231.375 Z " fill="#000000"/><text fill="#000000" font-family="sans-serif" font-size="14" lengthAdjust="spacing" textLength="24" x="118.75" y="241.2285">CIO</text><line style="stroke:#181818;stroke-width:0.5;" x1="8" x2="221" y1="251.5" y2="251.5"/><text fill="#000000" font-family="sans-serif" font-size="14" lengthAdjust="spacing" textLength="203" x="13" y="270.0332">CHIEF INFORMATION OFFICER</text><text fill="#000000" font-family="sans-serif" font-size="14" lengthAdjust="spacing" textLength="147" x="13" y="287.6426">Director de Información</text><line style="stroke:#181818;stroke-width:0.5;" x1="8" x2="221" y1="294.7188" y2="294.7188"/></g><!--MD5=[dd865797dce2abb7bf53f98491f09b40]
class CTO--><g id="elem_CTO"><rect codeLine="26" fill="#F1F1F1" height="83.2188" id="CTO" rx="2.5" ry="2.5" style="stroke:#181818;stroke-width:0.5;" width="217" x="257" y="219.5"/><ellipse cx="346.25" cy="235.5" fill="#ADD1B2" rx="11" ry="11" style="stroke:#181818;stroke-width:1.0;"/><path d="M349.0156,231.375 Q349.1719,231.1563 349.3594,231.0469 Q349.5469,230.9375 349.7656,230.9375 Q350.1406,230.9375 350.375,231.2031 Q350.6094,231.4531 350.6094,232.0625 L350.6094,233.5156 Q350.6094,234.125 350.375,234.3906 Q350.1406,234.6563 349.7656,234.6563 Q349.4219,234.6563 349.2188,234.4531 Q349.0156,234.2656 348.9063,233.75 Q348.8594,233.3906 348.6719,233.2031 Q348.3438,232.8281 347.7344,232.6094 Q347.125,232.3906 346.5,232.3906 Q345.7344,232.3906 345.0938,232.7188 Q344.4688,233.0469 343.9688,233.7969 Q343.4844,234.5469 343.4844,235.5781 L343.4844,236.6719 Q343.4844,237.9063 344.375,238.7344 Q345.2656,239.5469 346.8594,239.5469 Q347.7969,239.5469 348.4531,239.2969 Q348.8438,239.1406 349.2656,238.7031 Q349.5313,238.4375 349.6719,238.3594 Q349.8281,238.2813 350.0313,238.2813 Q350.3594,238.2813 350.6094,238.5469 Q350.875,238.7969 350.875,239.1406 Q350.875,239.4844 350.5313,239.8906 Q350.0313,240.4688 349.2344,240.7969 Q348.1563,241.25 346.8594,241.25 Q345.3438,241.25 344.1406,240.625 Q343.1563,240.125 342.4688,239.0625 Q341.7813,237.9844 341.7813,236.7031 L341.7813,235.5469 Q341.7813,234.2188 342.3906,233.0781 Q343.0156,231.9219 344.1094,231.3125 Q345.2031,230.6875 346.4375,230.6875 Q347.1719,230.6875 347.8125,230.8594 Q348.4688,231.0156 349.0156,231.375 Z " fill="#000000"/><text fill="#000000" font-family="sans-serif" font-size="14" lengthAdjust="spacing" textLength="30" x="366.75" y="241.2285">CTO</text><line style="stroke:#181818;stroke-width:0.5;" x1="258" x2="473" y1="251.5" y2="251.5"/><text fill="#000000" font-family="sans-serif" font-size="14" lengthAdjust="spacing" textLength="205" x="263" y="270.0332">CHIEF TECHNOLOGY OFFICER</text><text fill="#000000" font-family="sans-serif" font-size="14" lengthAdjust="spacing" textLength="144" x="263" y="287.6426">Director de Tecnología</text><line style="stroke:#181818;stroke-width:0.5;" x1="258" x2="473" y1="294.7188" y2="294.7188"/></g><!--MD5=[0794aa9b39ef72b93243be1795a19e83]
class CCO--><g id="elem_CCO"><rect codeLine="31" fill="#F1F1F1" height="83.2188" id="CCO" rx="2.5" ry="2.5" style="stroke:#181818;stroke-width:0.5;" width="245" x="509" y="219.5"/><ellipse cx="611.75" cy="235.5" fill="#ADD1B2" rx="11" ry="11" style="stroke:#181818;stroke-width:1.0;"/><path d="M614.5156,231.375 Q614.6719,231.1563 614.8594,231.0469 Q615.0469,230.9375 615.2656,230.9375 Q615.6406,230.9375 615.875,231.2031 Q616.1094,231.4531 616.1094,232.0625 L616.1094,233.5156 Q616.1094,234.125 615.875,234.3906 Q615.6406,234.6563 615.2656,234.6563 Q614.9219,234.6563 614.7188,234.4531 Q614.5156,234.2656 614.4063,233.75 Q614.3594,233.3906 614.1719,233.2031 Q613.8438,232.8281 613.2344,232.6094 Q612.625,232.3906 612,232.3906 Q611.2344,232.3906 610.5938,232.7188 Q609.9688,233.0469 609.4688,233.7969 Q608.9844,234.5469 608.9844,235.5781 L608.9844,236.6719 Q608.9844,237.9063 609.875,238.7344 Q610.7656,239.5469 612.3594,239.5469 Q613.2969,239.5469 613.9531,239.2969 Q614.3438,239.1406 614.7656,238.7031 Q615.0313,238.4375 615.1719,238.3594 Q615.3281,238.2813 615.5313,238.2813 Q615.8594,238.2813 616.1094,238.5469 Q616.375,238.7969 616.375,239.1406 Q616.375,239.4844 616.0313,239.8906 Q615.5313,240.4688 614.7344,240.7969 Q613.6563,241.25 612.3594,241.25 Q610.8438,241.25 609.6406,240.625 Q608.6563,240.125 607.9688,239.0625 Q607.2813,237.9844 607.2813,236.7031 L607.2813,235.5469 Q607.2813,234.2188 607.8906,233.0781 Q608.5156,231.9219 609.6094,231.3125 Q610.7031,230.6875 611.9375,230.6875 Q612.6719,230.6875 613.3125,230.8594 Q613.9688,231.0156 614.5156,231.375 Z " fill="#000000"/><text fill="#000000" font-family="sans-serif" font-size="14" lengthAdjust="spacing" textLength="31" x="632.25" y="241.2285">CCO</text><line style="stroke:#181818;stroke-width:0.5;" x1="510" x2="753" y1="251.5" y2="251.5"/><text fill="#000000" font-family="sans-serif" font-size="14" lengthAdjust="spacing" textLength="233" x="515" y="270.0332">CHIEF COMMUNICATIONS OFFICER</text><text fill="#000000" font-family="sans-serif" font-size="14" lengthAdjust="spacing" textLength="178" x="515" y="287.6426">Director de Comunicaciones</text><line style="stroke:#181818;stroke-width:0.5;" x1="510" x2="753" y1="294.7188" y2="294.7188"/></g><!--MD5=[b45eecff6558e20e233f145ae58230e6]
class CDO--><g id="elem_CDO"><rect codeLine="36" fill="#F1F1F1" height="222.4844" id="CDO" rx="2.5" ry="2.5" style="stroke:#181818;stroke-width:0.5;" width="197" x="789" y="150"/><ellipse cx="867.75" cy="166" fill="#ADD1B2" rx="11" ry="11" style="stroke:#181818;stroke-width:1.0;"/><path d="M870.5156,161.875 Q870.6719,161.6563 870.8594,161.5469 Q871.0469,161.4375 871.2656,161.4375 Q871.6406,161.4375 871.875,161.7031 Q872.1094,161.9531 872.1094,162.5625 L872.1094,164.0156 Q872.1094,164.625 871.875,164.8906 Q871.6406,165.1563 871.2656,165.1563 Q870.9219,165.1563 870.7188,164.9531 Q870.5156,164.7656 870.4063,164.25 Q870.3594,163.8906 870.1719,163.7031 Q869.8438,163.3281 869.2344,163.1094 Q868.625,162.8906 868,162.8906 Q867.2344,162.8906 866.5938,163.2188 Q865.9688,163.5469 865.4688,164.2969 Q864.9844,165.0469 864.9844,166.0781 L864.9844,167.1719 Q864.9844,168.4063 865.875,169.2344 Q866.7656,170.0469 868.3594,170.0469 Q869.2969,170.0469 869.9531,169.7969 Q870.3438,169.6406 870.7656,169.2031 Q871.0313,168.9375 871.1719,168.8594 Q871.3281,168.7813 871.5313,168.7813 Q871.8594,168.7813 872.1094,169.0469 Q872.375,169.2969 872.375,169.6406 Q872.375,169.9844 872.0313,170.3906 Q871.5313,170.9688 870.7344,171.2969 Q869.6563,171.75 868.3594,171.75 Q866.8438,171.75 865.6406,171.125 Q864.6563,170.625 863.9688,169.5625 Q863.2813,168.4844 863.2813,167.2031 L863.2813,166.0469 Q863.2813,164.7188 863.8906,163.5781 Q864.5156,162.4219 865.6094,161.8125 Q866.7031,161.1875 867.9375,161.1875 Q868.6719,161.1875 869.3125,161.3594 Q869.9688,161.5156 870.5156,161.875 Z " fill="#000000"/><text fill="#000000" font-family="sans-serif" font-size="14" lengthAdjust="spacing" textLength="31" x="888.25" y="171.7285">CDO</text><line style="stroke:#181818;stroke-width:0.5;" x1="790" x2="985" y1="182" y2="182"/><text fill="#000000" font-family="sans-serif" font-size="14" lengthAdjust="spacing" textLength="162" x="795" y="200.5332">CHIEF DIGITAL OFFICER</text><text fill="#000000" font-family="sans-serif" font-size="14" lengthAdjust="spacing" textLength="93" x="795" y="218.1426">Director Digital</text><line style="stroke:#181818;stroke-width:1.0;" x1="790" x2="985" y1="225.2188" y2="225.2188"/><text fill="#000000" font-family="sans-serif" font-size="14" lengthAdjust="spacing" textLength="160" x="795" y="243.752">CHIEF DESIGN OFFICER</text><text fill="#000000" font-family="sans-serif" font-size="14" lengthAdjust="spacing" textLength="118" x="795" y="261.3613">Director de Diseño</text><line style="stroke:#181818;stroke-width:1.0;" x1="790" x2="985" y1="268.4375" y2="268.4375"/><text fill="#000000" font-family="sans-serif" font-size="14" lengthAdjust="spacing" textLength="180" x="795" y="286.9707">CHIEF DIVERSITY OFFICER</text><text fill="#000000" font-family="sans-serif" font-size="14" lengthAdjust="spacing" textLength="141" x="795" y="304.5801">Director de Diversidad</text><line style="stroke:#181818;stroke-width:1.0;" x1="790" x2="985" y1="311.6563" y2="311.6563"/><text fill="#000000" font-family="sans-serif" font-size="14" lengthAdjust="spacing" textLength="146" x="795" y="330.1895">CHIEF DATA OFFICER</text><text fill="#000000" font-family="sans-serif" font-size="14" lengthAdjust="spacing" textLength="185" x="795" y="347.7988">Director digital de la empresa</text><text fill="#000000" font-family="sans-serif" font-size="14" lengthAdjust="spacing" textLength="4" x="795" y="365.4082"> </text></g><!--MD5=[3b086cf499c6737dff6c0a8962c3891b]
class CGO--><g id="elem_CGO"><rect codeLine="51" fill="#F1F1F1" height="83.2188" id="CGO" rx="2.5" ry="2.5" style="stroke:#181818;stroke-width:0.5;" width="194" x="17.5" y="432"/><ellipse cx="94.25" cy="448" fill="#ADD1B2" rx="11" ry="11" style="stroke:#181818;stroke-width:1.0;"/><path d="M97.0156,443.875 Q97.1719,443.6563 97.3594,443.5469 Q97.5469,443.4375 97.7656,443.4375 Q98.1406,443.4375 98.375,443.7031 Q98.6094,443.9531 98.6094,444.5625 L98.6094,446.0156 Q98.6094,446.625 98.375,446.8906 Q98.1406,447.1563 97.7656,447.1563 Q97.4219,447.1563 97.2188,446.9531 Q97.0156,446.7656 96.9063,446.25 Q96.8594,445.8906 96.6719,445.7031 Q96.3438,445.3281 95.7344,445.1094 Q95.125,444.8906 94.5,444.8906 Q93.7344,444.8906 93.0938,445.2188 Q92.4688,445.5469 91.9688,446.2969 Q91.4844,447.0469 91.4844,448.0781 L91.4844,449.1719 Q91.4844,450.4063 92.375,451.2344 Q93.2656,452.0469 94.8594,452.0469 Q95.7969,452.0469 96.4531,451.7969 Q96.8438,451.6406 97.2656,451.2031 Q97.5313,450.9375 97.6719,450.8594 Q97.8281,450.7813 98.0313,450.7813 Q98.3594,450.7813 98.6094,451.0469 Q98.875,451.2969 98.875,451.6406 Q98.875,451.9844 98.5313,452.3906 Q98.0313,452.9688 97.2344,453.2969 Q96.1563,453.75 94.8594,453.75 Q93.3438,453.75 92.1406,453.125 Q91.1563,452.625 90.4688,451.5625 Q89.7813,450.4844 89.7813,449.2031 L89.7813,448.0469 Q89.7813,446.7188 90.3906,445.5781 Q91.0156,444.4219 92.1094,443.8125 Q93.2031,443.1875 94.4375,443.1875 Q95.1719,443.1875 95.8125,443.3594 Q96.4688,443.5156 97.0156,443.875 Z " fill="#000000"/><text fill="#000000" font-family="sans-serif" font-size="14" lengthAdjust="spacing" textLength="32" x="114.75" y="453.7285">CGO</text><line style="stroke:#181818;stroke-width:0.5;" x1="18.5" x2="210.5" y1="464" y2="464"/><text fill="#000000" font-family="sans-serif" font-size="14" lengthAdjust="spacing" textLength="172" x="23.5" y="482.5332">CHIEF GROWTH OFFICER</text><text fill="#000000" font-family="sans-serif" font-size="14" lengthAdjust="spacing" textLength="182" x="23.5" y="500.1426">Responsable del crecimiento</text><line style="stroke:#181818;stroke-width:0.5;" x1="18.5" x2="210.5" y1="507.2188" y2="507.2188"/></g><!--MD5=[6aced4759be61d147cf3de961cdde60f]
class CXO--><g id="elem_CXO"><rect codeLine="56" fill="#F1F1F1" height="83.2188" id="CXO" rx="2.5" ry="2.5" style="stroke:#181818;stroke-width:0.5;" width="288" x="246.5" y="432"/><ellipse cx="371.75" cy="448" fill="#ADD1B2" rx="11" ry="11" style="stroke:#181818;stroke-width:1.0;"/><path d="M374.5156,443.875 Q374.6719,443.6563 374.8594,443.5469 Q375.0469,443.4375 375.2656,443.4375 Q375.6406,443.4375 375.875,443.7031 Q376.1094,443.9531 376.1094,444.5625 L376.1094,446.0156 Q376.1094,446.625 375.875,446.8906 Q375.6406,447.1563 375.2656,447.1563 Q374.9219,447.1563 374.7188,446.9531 Q374.5156,446.7656 374.4063,446.25 Q374.3594,445.8906 374.1719,445.7031 Q373.8438,445.3281 373.2344,445.1094 Q372.625,444.8906 372,444.8906 Q371.2344,444.8906 370.5938,445.2188 Q369.9688,445.5469 369.4688,446.2969 Q368.9844,447.0469 368.9844,448.0781 L368.9844,449.1719 Q368.9844,450.4063 369.875,451.2344 Q370.7656,452.0469 372.3594,452.0469 Q373.2969,452.0469 373.9531,451.7969 Q374.3438,451.6406 374.7656,451.2031 Q375.0313,450.9375 375.1719,450.8594 Q375.3281,450.7813 375.5313,450.7813 Q375.8594,450.7813 376.1094,451.0469 Q376.375,451.2969 376.375,451.6406 Q376.375,451.9844 376.0313,452.3906 Q375.5313,452.9688 374.7344,453.2969 Q373.6563,453.75 372.3594,453.75 Q370.8438,453.75 369.6406,453.125 Q368.6563,452.625 367.9688,451.5625 Q367.2813,450.4844 367.2813,449.2031 L367.2813,448.0469 Q367.2813,446.7188 367.8906,445.5781 Q368.5156,444.4219 369.6094,443.8125 Q370.7031,443.1875 371.9375,443.1875 Q372.6719,443.1875 373.3125,443.3594 Q373.9688,443.5156 374.5156,443.875 Z " fill="#000000"/><text fill="#000000" font-family="sans-serif" font-size="14" lengthAdjust="spacing" textLength="29" x="392.25" y="453.7285">CXO</text><line style="stroke:#181818;stroke-width:0.5;" x1="247.5" x2="533.5" y1="464" y2="464"/><text fill="#000000" font-family="sans-serif" font-size="14" lengthAdjust="spacing" textLength="276" x="252.5" y="482.5332">CHIEF CUSTOMER EXPERIENCE OFFICER</text><text fill="#000000" font-family="sans-serif" font-size="14" lengthAdjust="spacing" textLength="218" x="252.5" y="500.1426">Director de Experiencia del Cliente</text><line style="stroke:#181818;stroke-width:0.5;" x1="247.5" x2="533.5" y1="507.2188" y2="507.2188"/></g><!--MD5=[6f0384f626677c3bfc5e40e692353252]
class CRO--><g id="elem_CRO"><rect codeLine="61" fill="#F1F1F1" height="83.2188" id="CRO" rx="2.5" ry="2.5" style="stroke:#181818;stroke-width:0.5;" width="180" x="569.5" y="432"/><ellipse cx="639.75" cy="448" fill="#ADD1B2" rx="11" ry="11" style="stroke:#181818;stroke-width:1.0;"/><path d="M642.5156,443.875 Q642.6719,443.6563 642.8594,443.5469 Q643.0469,443.4375 643.2656,443.4375 Q643.6406,443.4375 643.875,443.7031 Q644.1094,443.9531 644.1094,444.5625 L644.1094,446.0156 Q644.1094,446.625 643.875,446.8906 Q643.6406,447.1563 643.2656,447.1563 Q642.9219,447.1563 642.7188,446.9531 Q642.5156,446.7656 642.4063,446.25 Q642.3594,445.8906 642.1719,445.7031 Q641.8438,445.3281 641.2344,445.1094 Q640.625,444.8906 640,444.8906 Q639.2344,444.8906 638.5938,445.2188 Q637.9688,445.5469 637.4688,446.2969 Q636.9844,447.0469 636.9844,448.0781 L636.9844,449.1719 Q636.9844,450.4063 637.875,451.2344 Q638.7656,452.0469 640.3594,452.0469 Q641.2969,452.0469 641.9531,451.7969 Q642.3438,451.6406 642.7656,451.2031 Q643.0313,450.9375 643.1719,450.8594 Q643.3281,450.7813 643.5313,450.7813 Q643.8594,450.7813 644.1094,451.0469 Q644.375,451.2969 644.375,451.6406 Q644.375,451.9844 644.0313,452.3906 Q643.5313,452.9688 642.7344,453.2969 Q641.6563,453.75 640.3594,453.75 Q638.8438,453.75 637.6406,453.125 Q636.6563,452.625 635.9688,451.5625 Q635.2813,450.4844 635.2813,449.2031 L635.2813,448.0469 Q635.2813,446.7188 635.8906,445.5781 Q636.5156,444.4219 637.6094,443.8125 Q638.7031,443.1875 639.9375,443.1875 Q640.6719,443.1875 641.3125,443.3594 Q641.9688,443.5156 642.5156,443.875 Z " fill="#000000"/><text fill="#000000" font-family="sans-serif" font-size="14" lengthAdjust="spacing" textLength="31" x="660.25" y="453.7285">CRO</text><line style="stroke:#181818;stroke-width:0.5;" x1="570.5" x2="748.5" y1="464" y2="464"/><text fill="#000000" font-family="sans-serif" font-size="14" lengthAdjust="spacing" textLength="168" x="575.5" y="482.5332">CHIEF REMOTE OFFICER</text><text fill="#000000" font-family="sans-serif" font-size="14" lengthAdjust="spacing" textLength="141" x="575.5" y="500.1426">Director de teletrabajo</text><line style="stroke:#181818;stroke-width:0.5;" x1="570.5" x2="748.5" y1="507.2188" y2="507.2188"/></g><!--MD5=[48509b487bc3e165fe6117914d7252df]
@startuml
class CEO {
    CHIEF EXECUTIVE OFFICER
    Director Ejecutivo
}

class COO{
    CHIEF OPERATING OFFICER
    Director de Operaciones
}

class CMO{
    CHIEF MARKETING OFFICER
    Director de Marketing
}

class CFO{
    CHIEF FINANCIAL OFFICER
    Director Financiero
}

class CIO{
    CHIEF INFORMATION OFFICER
    Director de Información
}

class CTO{
    CHIEF TECHNOLOGY OFFICER
    Director de Tecnología
}

class CCO {
    CHIEF COMMUNICATIONS OFFICER
    Director de Comunicaciones
}

class CDO {
    CHIEF DIGITAL OFFICER
    Director Digital
    - - -
    CHIEF DESIGN OFFICER
    Director de Diseño
    - - -
    CHIEF DIVERSITY OFFICER
    Director de Diversidad
    - - -
    CHIEF DATA OFFICER 
    Director digital de la empresa

}

class CGO {
    CHIEF GROWTH OFFICER
    Responsable del crecimiento
}

class CXO {
    CHIEF CUSTOMER EXPERIENCE OFFICER
    Director de Experiencia del Cliente
}

class CRO {
    CHIEF REMOTE OFFICER
    Director de teletrabajo
}





@enduml

PlantUML version 1.2022.7(Mon Aug 22 19:01:30 CEST 2022)
(GPL source distribution)
Java Runtime: Java(TM) SE Runtime Environment
JVM: Java HotSpot(TM) 64-Bit Server VM
Default Encoding: UTF-8
Language: es
Country: ES
--></g></svg>