<?xml version="1.0" encoding="UTF-8" standalone="no"?><svg xmlns="http://www.w3.org/2000/svg" xmlns:xlink="http://www.w3.org/1999/xlink" contentStyleType="text/css" height="351px" preserveAspectRatio="none" style="width:626px;height:351px;background:#FFFFFF;" version="1.1" viewBox="0 0 626 351" width="626px" zoomAndPan="magnify"><defs/><g><!--MD5=[1ec02a56cfdb0fb8691cbdccdb3560c9]
cluster Empresa--><g id="cluster_Empresa"><path d="M8.5,102 L70.5,102 A3.75,3.75 0 0 1 73,104.5 L80,125.6094 L434.5,125.6094 A2.5,2.5 0 0 1 437,128.1094 L437,341.5 A2.5,2.5 0 0 1 434.5,344 L8.5,344 A2.5,2.5 0 0 1 6,341.5 L6,104.5 A2.5,2.5 0 0 1 8.5,102 " fill="none" style="stroke:#000000;stroke-width:1.5;"/><line style="stroke:#000000;stroke-width:1.5;" x1="6" x2="80" y1="125.6094" y2="125.6094"/><text fill="#000000" font-family="sans-serif" font-size="14" font-weight="bold" lengthAdjust="spacing" textLength="61" x="10" y="118.5332">Empresa</text></g><!--MD5=[7d0e5ddd73bd8fec86b8967827845935]
class Empresa--><g id="elem_Empresa"><rect codeLine="2" fill="#F1F1F1" height="48" id="Empresa" rx="2.5" ry="2.5" style="stroke:#181818;stroke-width:0.5;" width="165" x="255.5" y="138"/><ellipse cx="270.5" cy="154" fill="#ADD1B2" rx="11" ry="11" style="stroke:#181818;stroke-width:1.0;"/><path d="M273.2656,149.875 Q273.4219,149.6563 273.6094,149.5469 Q273.7969,149.4375 274.0156,149.4375 Q274.3906,149.4375 274.625,149.7031 Q274.8594,149.9531 274.8594,150.5625 L274.8594,152.0156 Q274.8594,152.625 274.625,152.8906 Q274.3906,153.1563 274.0156,153.1563 Q273.6719,153.1563 273.4688,152.9531 Q273.2656,152.7656 273.1563,152.25 Q273.1094,151.8906 272.9219,151.7031 Q272.5938,151.3281 271.9844,151.1094 Q271.375,150.8906 270.75,150.8906 Q269.9844,150.8906 269.3438,151.2188 Q268.7188,151.5469 268.2188,152.2969 Q267.7344,153.0469 267.7344,154.0781 L267.7344,155.1719 Q267.7344,156.4063 268.625,157.2344 Q269.5156,158.0469 271.1094,158.0469 Q272.0469,158.0469 272.7031,157.7969 Q273.0938,157.6406 273.5156,157.2031 Q273.7813,156.9375 273.9219,156.8594 Q274.0781,156.7813 274.2813,156.7813 Q274.6094,156.7813 274.8594,157.0469 Q275.125,157.2969 275.125,157.6406 Q275.125,157.9844 274.7813,158.3906 Q274.2813,158.9688 273.4844,159.2969 Q272.4063,159.75 271.1094,159.75 Q269.5938,159.75 268.3906,159.125 Q267.4063,158.625 266.7188,157.5625 Q266.0313,156.4844 266.0313,155.2031 L266.0313,154.0469 Q266.0313,152.7188 266.6406,151.5781 Q267.2656,150.4219 268.3594,149.8125 Q269.4531,149.1875 270.6875,149.1875 Q271.4219,149.1875 272.0625,149.3594 Q272.7188,149.5156 273.2656,149.875 Z " fill="#000000"/><text fill="#000000" font-family="sans-serif" font-size="14" lengthAdjust="spacing" textLength="133" x="284.5" y="159.7285">Iniciativa Empresarial</text><line style="stroke:#181818;stroke-width:0.5;" x1="256.5" x2="419.5" y1="170" y2="170"/><line style="stroke:#181818;stroke-width:0.5;" x1="256.5" x2="419.5" y1="178" y2="178"/></g><!--MD5=[78b72863b59ffa18eada8fec2f96cb5a]
class Ganancias--><g id="elem_Ganancias"><rect fill="#F1F1F1" height="48" id="Ganancias" rx="2.5" ry="2.5" style="stroke:#181818;stroke-width:0.5;" width="100" x="22" y="138"/><ellipse cx="37" cy="154" fill="#ADD1B2" rx="11" ry="11" style="stroke:#181818;stroke-width:1.0;"/><path d="M39.7656,149.875 Q39.9219,149.6563 40.1094,149.5469 Q40.2969,149.4375 40.5156,149.4375 Q40.8906,149.4375 41.125,149.7031 Q41.3594,149.9531 41.3594,150.5625 L41.3594,152.0156 Q41.3594,152.625 41.125,152.8906 Q40.8906,153.1563 40.5156,153.1563 Q40.1719,153.1563 39.9688,152.9531 Q39.7656,152.7656 39.6563,152.25 Q39.6094,151.8906 39.4219,151.7031 Q39.0938,151.3281 38.4844,151.1094 Q37.875,150.8906 37.25,150.8906 Q36.4844,150.8906 35.8438,151.2188 Q35.2188,151.5469 34.7188,152.2969 Q34.2344,153.0469 34.2344,154.0781 L34.2344,155.1719 Q34.2344,156.4063 35.125,157.2344 Q36.0156,158.0469 37.6094,158.0469 Q38.5469,158.0469 39.2031,157.7969 Q39.5938,157.6406 40.0156,157.2031 Q40.2813,156.9375 40.4219,156.8594 Q40.5781,156.7813 40.7813,156.7813 Q41.1094,156.7813 41.3594,157.0469 Q41.625,157.2969 41.625,157.6406 Q41.625,157.9844 41.2813,158.3906 Q40.7813,158.9688 39.9844,159.2969 Q38.9063,159.75 37.6094,159.75 Q36.0938,159.75 34.8906,159.125 Q33.9063,158.625 33.2188,157.5625 Q32.5313,156.4844 32.5313,155.2031 L32.5313,154.0469 Q32.5313,152.7188 33.1406,151.5781 Q33.7656,150.4219 34.8594,149.8125 Q35.9531,149.1875 37.1875,149.1875 Q37.9219,149.1875 38.5625,149.3594 Q39.2188,149.5156 39.7656,149.875 Z " fill="#000000"/><text fill="#000000" font-family="sans-serif" font-size="14" lengthAdjust="spacing" textLength="68" x="51" y="159.7285">Ganancias</text><line style="stroke:#181818;stroke-width:0.5;" x1="23" x2="121" y1="170" y2="170"/><line style="stroke:#181818;stroke-width:0.5;" x1="23" x2="121" y1="178" y2="178"/></g><!--MD5=[e43593a76b6933288e377c0958382165]
class Accionistas--><g id="elem_Accionistas"><rect fill="#F1F1F1" height="48" id="Accionistas" rx="2.5" ry="2.5" style="stroke:#181818;stroke-width:0.5;" width="103" x="22.5" y="280"/><ellipse cx="37.5" cy="296" fill="#ADD1B2" rx="11" ry="11" style="stroke:#181818;stroke-width:1.0;"/><path d="M40.2656,291.875 Q40.4219,291.6563 40.6094,291.5469 Q40.7969,291.4375 41.0156,291.4375 Q41.3906,291.4375 41.625,291.7031 Q41.8594,291.9531 41.8594,292.5625 L41.8594,294.0156 Q41.8594,294.625 41.625,294.8906 Q41.3906,295.1563 41.0156,295.1563 Q40.6719,295.1563 40.4688,294.9531 Q40.2656,294.7656 40.1563,294.25 Q40.1094,293.8906 39.9219,293.7031 Q39.5938,293.3281 38.9844,293.1094 Q38.375,292.8906 37.75,292.8906 Q36.9844,292.8906 36.3438,293.2188 Q35.7188,293.5469 35.2188,294.2969 Q34.7344,295.0469 34.7344,296.0781 L34.7344,297.1719 Q34.7344,298.4063 35.625,299.2344 Q36.5156,300.0469 38.1094,300.0469 Q39.0469,300.0469 39.7031,299.7969 Q40.0938,299.6406 40.5156,299.2031 Q40.7813,298.9375 40.9219,298.8594 Q41.0781,298.7813 41.2813,298.7813 Q41.6094,298.7813 41.8594,299.0469 Q42.125,299.2969 42.125,299.6406 Q42.125,299.9844 41.7813,300.3906 Q41.2813,300.9688 40.4844,301.2969 Q39.4063,301.75 38.1094,301.75 Q36.5938,301.75 35.3906,301.125 Q34.4063,300.625 33.7188,299.5625 Q33.0313,298.4844 33.0313,297.2031 L33.0313,296.0469 Q33.0313,294.7188 33.6406,293.5781 Q34.2656,292.4219 35.3594,291.8125 Q36.4531,291.1875 37.6875,291.1875 Q38.4219,291.1875 39.0625,291.3594 Q39.7188,291.5156 40.2656,291.875 Z " fill="#000000"/><text fill="#000000" font-family="sans-serif" font-size="14" lengthAdjust="spacing" textLength="71" x="51.5" y="301.7285">Accionistas</text><line style="stroke:#181818;stroke-width:0.5;" x1="23.5" x2="124.5" y1="312" y2="312"/><line style="stroke:#181818;stroke-width:0.5;" x1="23.5" x2="124.5" y1="320" y2="320"/></g><!--MD5=[90cbd1fbe3b97ffbe5ad30348823c0ca]
class Bienes o Servicios--><g id="elem_Bienes o Servicios"><rect fill="#F1F1F1" height="48" id="Bienes o Servicios" rx="2.5" ry="2.5" style="stroke:#181818;stroke-width:0.5;" width="148" x="262" y="280"/><ellipse cx="277" cy="296" fill="#ADD1B2" rx="11" ry="11" style="stroke:#181818;stroke-width:1.0;"/><path d="M279.7656,291.875 Q279.9219,291.6563 280.1094,291.5469 Q280.2969,291.4375 280.5156,291.4375 Q280.8906,291.4375 281.125,291.7031 Q281.3594,291.9531 281.3594,292.5625 L281.3594,294.0156 Q281.3594,294.625 281.125,294.8906 Q280.8906,295.1563 280.5156,295.1563 Q280.1719,295.1563 279.9688,294.9531 Q279.7656,294.7656 279.6563,294.25 Q279.6094,293.8906 279.4219,293.7031 Q279.0938,293.3281 278.4844,293.1094 Q277.875,292.8906 277.25,292.8906 Q276.4844,292.8906 275.8438,293.2188 Q275.2188,293.5469 274.7188,294.2969 Q274.2344,295.0469 274.2344,296.0781 L274.2344,297.1719 Q274.2344,298.4063 275.125,299.2344 Q276.0156,300.0469 277.6094,300.0469 Q278.5469,300.0469 279.2031,299.7969 Q279.5938,299.6406 280.0156,299.2031 Q280.2813,298.9375 280.4219,298.8594 Q280.5781,298.7813 280.7813,298.7813 Q281.1094,298.7813 281.3594,299.0469 Q281.625,299.2969 281.625,299.6406 Q281.625,299.9844 281.2813,300.3906 Q280.7813,300.9688 279.9844,301.2969 Q278.9063,301.75 277.6094,301.75 Q276.0938,301.75 274.8906,301.125 Q273.9063,300.625 273.2188,299.5625 Q272.5313,298.4844 272.5313,297.2031 L272.5313,296.0469 Q272.5313,294.7188 273.1406,293.5781 Q273.7656,292.4219 274.8594,291.8125 Q275.9531,291.1875 277.1875,291.1875 Q277.9219,291.1875 278.5625,291.3594 Q279.2188,291.5156 279.7656,291.875 Z " fill="#000000"/><text fill="#000000" font-family="sans-serif" font-size="14" lengthAdjust="spacing" textLength="116" x="291" y="301.7285">Bienes o Servicios</text><line style="stroke:#181818;stroke-width:0.5;" x1="263" x2="409" y1="312" y2="312"/><line style="stroke:#181818;stroke-width:0.5;" x1="263" x2="409" y1="320" y2="320"/></g><!--MD5=[d00d34812ce7333c7bcaef496f56baf0]
class Valor--><g id="elem_Valor"><rect fill="#F1F1F1" height="48" id="Valor" rx="2.5" ry="2.5" style="stroke:#181818;stroke-width:0.5;" width="65" x="554.5" y="138"/><ellipse cx="569.5" cy="154" fill="#ADD1B2" rx="11" ry="11" style="stroke:#181818;stroke-width:1.0;"/><path d="M572.2656,149.875 Q572.4219,149.6563 572.6094,149.5469 Q572.7969,149.4375 573.0156,149.4375 Q573.3906,149.4375 573.625,149.7031 Q573.8594,149.9531 573.8594,150.5625 L573.8594,152.0156 Q573.8594,152.625 573.625,152.8906 Q573.3906,153.1563 573.0156,153.1563 Q572.6719,153.1563 572.4688,152.9531 Q572.2656,152.7656 572.1563,152.25 Q572.1094,151.8906 571.9219,151.7031 Q571.5938,151.3281 570.9844,151.1094 Q570.375,150.8906 569.75,150.8906 Q568.9844,150.8906 568.3438,151.2188 Q567.7188,151.5469 567.2188,152.2969 Q566.7344,153.0469 566.7344,154.0781 L566.7344,155.1719 Q566.7344,156.4063 567.625,157.2344 Q568.5156,158.0469 570.1094,158.0469 Q571.0469,158.0469 571.7031,157.7969 Q572.0938,157.6406 572.5156,157.2031 Q572.7813,156.9375 572.9219,156.8594 Q573.0781,156.7813 573.2813,156.7813 Q573.6094,156.7813 573.8594,157.0469 Q574.125,157.2969 574.125,157.6406 Q574.125,157.9844 573.7813,158.3906 Q573.2813,158.9688 572.4844,159.2969 Q571.4063,159.75 570.1094,159.75 Q568.5938,159.75 567.3906,159.125 Q566.4063,158.625 565.7188,157.5625 Q565.0313,156.4844 565.0313,155.2031 L565.0313,154.0469 Q565.0313,152.7188 565.6406,151.5781 Q566.2656,150.4219 567.3594,149.8125 Q568.4531,149.1875 569.6875,149.1875 Q570.4219,149.1875 571.0625,149.3594 Q571.7188,149.5156 572.2656,149.875 Z " fill="#000000"/><text fill="#000000" font-family="sans-serif" font-size="14" lengthAdjust="spacing" textLength="33" x="583.5" y="159.7285">Valor</text><line style="stroke:#181818;stroke-width:0.5;" x1="555.5" x2="618.5" y1="170" y2="170"/><line style="stroke:#181818;stroke-width:0.5;" x1="555.5" x2="618.5" y1="178" y2="178"/></g><!--MD5=[1f6735a51315150a0a643a1ac05195e0]
class Organización--><g id="elem_Organización"><rect fill="#F1F1F1" height="48" id="Organización" rx="2.5" ry="2.5" style="stroke:#181818;stroke-width:0.5;" width="115" x="280.5" y="7"/><ellipse cx="295.5" cy="23" fill="#ADD1B2" rx="11" ry="11" style="stroke:#181818;stroke-width:1.0;"/><path d="M298.2656,18.875 Q298.4219,18.6563 298.6094,18.5469 Q298.7969,18.4375 299.0156,18.4375 Q299.3906,18.4375 299.625,18.7031 Q299.8594,18.9531 299.8594,19.5625 L299.8594,21.0156 Q299.8594,21.625 299.625,21.8906 Q299.3906,22.1563 299.0156,22.1563 Q298.6719,22.1563 298.4688,21.9531 Q298.2656,21.7656 298.1563,21.25 Q298.1094,20.8906 297.9219,20.7031 Q297.5938,20.3281 296.9844,20.1094 Q296.375,19.8906 295.75,19.8906 Q294.9844,19.8906 294.3438,20.2188 Q293.7188,20.5469 293.2188,21.2969 Q292.7344,22.0469 292.7344,23.0781 L292.7344,24.1719 Q292.7344,25.4063 293.625,26.2344 Q294.5156,27.0469 296.1094,27.0469 Q297.0469,27.0469 297.7031,26.7969 Q298.0938,26.6406 298.5156,26.2031 Q298.7813,25.9375 298.9219,25.8594 Q299.0781,25.7813 299.2813,25.7813 Q299.6094,25.7813 299.8594,26.0469 Q300.125,26.2969 300.125,26.6406 Q300.125,26.9844 299.7813,27.3906 Q299.2813,27.9688 298.4844,28.2969 Q297.4063,28.75 296.1094,28.75 Q294.5938,28.75 293.3906,28.125 Q292.4063,27.625 291.7188,26.5625 Q291.0313,25.4844 291.0313,24.2031 L291.0313,23.0469 Q291.0313,21.7188 291.6406,20.5781 Q292.2656,19.4219 293.3594,18.8125 Q294.4531,18.1875 295.6875,18.1875 Q296.4219,18.1875 297.0625,18.3594 Q297.7188,18.5156 298.2656,18.875 Z " fill="#000000"/><text fill="#000000" font-family="sans-serif" font-size="14" lengthAdjust="spacing" textLength="83" x="309.5" y="28.7285">Organización</text><line style="stroke:#181818;stroke-width:0.5;" x1="281.5" x2="394.5" y1="39" y2="39"/><line style="stroke:#181818;stroke-width:0.5;" x1="281.5" x2="394.5" y1="47" y2="47"/></g><!--MD5=[abd2c9c6ce46269cbe00cfe900c26e5c]
class Clientes--><g id="elem_Clientes"><rect fill="#F1F1F1" height="48" id="Clientes" rx="2.5" ry="2.5" style="stroke:#181818;stroke-width:0.5;" width="83" x="499.5" y="280"/><ellipse cx="514.5" cy="296" fill="#ADD1B2" rx="11" ry="11" style="stroke:#181818;stroke-width:1.0;"/><path d="M517.2656,291.875 Q517.4219,291.6563 517.6094,291.5469 Q517.7969,291.4375 518.0156,291.4375 Q518.3906,291.4375 518.625,291.7031 Q518.8594,291.9531 518.8594,292.5625 L518.8594,294.0156 Q518.8594,294.625 518.625,294.8906 Q518.3906,295.1563 518.0156,295.1563 Q517.6719,295.1563 517.4688,294.9531 Q517.2656,294.7656 517.1563,294.25 Q517.1094,293.8906 516.9219,293.7031 Q516.5938,293.3281 515.9844,293.1094 Q515.375,292.8906 514.75,292.8906 Q513.9844,292.8906 513.3438,293.2188 Q512.7188,293.5469 512.2188,294.2969 Q511.7344,295.0469 511.7344,296.0781 L511.7344,297.1719 Q511.7344,298.4063 512.625,299.2344 Q513.5156,300.0469 515.1094,300.0469 Q516.0469,300.0469 516.7031,299.7969 Q517.0938,299.6406 517.5156,299.2031 Q517.7813,298.9375 517.9219,298.8594 Q518.0781,298.7813 518.2813,298.7813 Q518.6094,298.7813 518.8594,299.0469 Q519.125,299.2969 519.125,299.6406 Q519.125,299.9844 518.7813,300.3906 Q518.2813,300.9688 517.4844,301.2969 Q516.4063,301.75 515.1094,301.75 Q513.5938,301.75 512.3906,301.125 Q511.4063,300.625 510.7188,299.5625 Q510.0313,298.4844 510.0313,297.2031 L510.0313,296.0469 Q510.0313,294.7188 510.6406,293.5781 Q511.2656,292.4219 512.3594,291.8125 Q513.4531,291.1875 514.6875,291.1875 Q515.4219,291.1875 516.0625,291.3594 Q516.7188,291.5156 517.2656,291.875 Z " fill="#000000"/><text fill="#000000" font-family="sans-serif" font-size="14" lengthAdjust="spacing" textLength="51" x="528.5" y="301.7285">Clientes</text><line style="stroke:#181818;stroke-width:0.5;" x1="500.5" x2="581.5" y1="312" y2="312"/><line style="stroke:#181818;stroke-width:0.5;" x1="500.5" x2="581.5" y1="320" y2="320"/></g><!--MD5=[a307834582407f0a12949affd15509a9]
link Ganancias to Empresa--><g id="link_Ganancias_Empresa"><path codeLine="3" d="M122.03,162 C159.51,162 211.61,162 255.25,162 " fill="none" id="Ganancias-Empresa" style="stroke:#181818;stroke-width:1.0;"/><polygon fill="#000000" points="139.25,150.1758,148.2951,153.1147,148.2951,147.2369,139.25,150.1758" style="stroke:#000000;stroke-width:1.0;"/><text fill="#000000" font-family="sans-serif" font-size="13" lengthAdjust="spacing" textLength="84" x="153.25" y="155.4951">Busca generar</text></g><!--MD5=[7e6b3df97924c121aab672024a188f13]
link Ganancias to Accionistas--><g id="link_Ganancias_Accionistas"><path codeLine="4" d="M72.33,186.12 C72.7,212.06 73.3,253.89 73.67,279.85 " fill="none" id="Ganancias-Accionistas" style="stroke:#181818;stroke-width:1.0;"/></g><!--MD5=[3ac78f5e61d70761bca8dd83151ee405]
link Empresa to Bienes o Servicios--><g id="link_Empresa_Bienes o Servicios"><path codeLine="7" d="M337.67,186.12 C337.3,212.06 336.7,253.89 336.33,279.85 " fill="none" id="Empresa-Bienes o Servicios" style="stroke:#181818;stroke-width:1.0;"/><text fill="#000000" font-family="sans-serif" font-size="13" lengthAdjust="spacing" textLength="83" x="342.5" y="230.4951">Produciendo o</text><polygon fill="#000000" points="343.9285,246.5268,346.9965,237.5247,341.1192,237.4407,343.9285,246.5268" style="stroke:#000000;stroke-width:1.0;"/><text fill="#000000" font-family="sans-serif" font-size="13" lengthAdjust="spacing" textLength="77" x="352" y="246.8467">distribuyendo</text></g><!--MD5=[04421ecd9d2ee93961504e273cdc7378]
link Empresa to Valor--><g id="link_Empresa_Valor"><path codeLine="10" d="M420.57,162 C466.29,162 520.56,162 554.4,162 " fill="none" id="Empresa-Valor" style="stroke:#181818;stroke-width:1.0;"/><polygon fill="#000000" points="448,150.1758,438.9549,147.2369,438.9549,153.1147,448,150.1758" style="stroke:#000000;stroke-width:1.0;"/><text fill="#000000" font-family="sans-serif" font-size="13" lengthAdjust="spacing" textLength="84" x="452" y="155.4951">Busca generar</text></g><!--MD5=[5b9a4a426cc74fb7baa4a27d47d1c0c1]
reverse link Organización to Empresa--><g id="link_Organización_Empresa"><path codeLine="11" d="M338,75.18 C338,96.07 338,120.32 338,137.7 " fill="none" id="Organización-backto-Empresa" style="stroke:#181818;stroke-width:1.0;"/><polygon fill="none" points="331,75.06,338,55.06,345,75.06,331,75.06" style="stroke:#181818;stroke-width:1.0;"/></g><!--MD5=[16284afe644169860b17c3a177e8b916]
link Bienes o Servicios to Clientes--><g id="link_Bienes o Servicios_Clientes"><path codeLine="12" d="M410.07,304 C439.82,304 469.57,304 499.32,304 " fill="none" id="Bienes o Servicios-Clientes" style="stroke:#181818;stroke-width:1.0;stroke-dasharray:7.0,7.0;"/></g><!--MD5=[0a690f44910ad2fb128c9071af32f3fe]
link Valor to Clientes--><g id="link_Valor_Clientes"><path codeLine="13" d="M579.4,186.12 C570.88,212.06 557.13,253.89 548.61,279.85 " fill="none" id="Valor-Clientes" style="stroke:#181818;stroke-width:1.0;"/></g><!--MD5=[529d3ad90192ad92701a0cca7d04bd42]
@startuml
package Empresa {
    class "Iniciativa Empresarial" as Empresa 
    Empresa -l- Ganancias: Busca generar >
    Ganancias -d- Accionistas

    
    Empresa -d- "Bienes o Servicios": Produciendo o\n distribuyendo >
}

    Empresa -r- Valor: Busca generar >
Organización <|- - Empresa
"Bienes o Servicios" .r.. Clientes
Valor -d- Clientes

@enduml

PlantUML version 1.2022.7(Mon Aug 22 19:01:30 CEST 2022)
(GPL source distribution)
Java Runtime: Java(TM) SE Runtime Environment
JVM: Java HotSpot(TM) 64-Bit Server VM
Default Encoding: UTF-8
Language: es
Country: ES
--></g></svg>