<?xml version="1.0" encoding="UTF-8" standalone="no"?><svg xmlns="http://www.w3.org/2000/svg" xmlns:xlink="http://www.w3.org/1999/xlink" contentStyleType="text/css" height="291px" preserveAspectRatio="none" style="width:548px;height:291px;background:#FFFFFF;" version="1.1" viewBox="0 0 548 291" width="548px" zoomAndPan="magnify"><defs/><g><!--MD5=[1ec02a56cfdb0fb8691cbdccdb3560c9]
cluster Empresa--><g id="cluster_Empresa"><path d="M8.5,82 L70.5,82 A3.75,3.75 0 0 1 73,84.5 L80,105.6094 L382.5,105.6094 A2.5,2.5 0 0 1 385,108.1094 L385,281.5 A2.5,2.5 0 0 1 382.5,284 L8.5,284 A2.5,2.5 0 0 1 6,281.5 L6,84.5 A2.5,2.5 0 0 1 8.5,82 " fill="none" style="stroke:#000000;stroke-width:1.5;"/><line style="stroke:#000000;stroke-width:1.5;" x1="6" x2="80" y1="105.6094" y2="105.6094"/><text fill="#000000" font-family="sans-serif" font-size="14" font-weight="bold" lengthAdjust="spacing" textLength="61" x="10" y="98.5332">Empresa</text></g><!--MD5=[7d0e5ddd73bd8fec86b8967827845935]
class Empresa--><g id="elem_Empresa"><rect codeLine="2" fill="#F1F1F1" height="27.6094" id="Empresa" rx="2.5" ry="2.5" style="stroke:#181818;stroke-width:0.5;" width="139" x="229.5" y="118"/><text fill="#000000" font-family="sans-serif" font-size="14" lengthAdjust="spacing" textLength="133" x="232.5" y="137.5332">Iniciativa Empresarial</text></g><!--MD5=[78b72863b59ffa18eada8fec2f96cb5a]
class Ganancias--><g id="elem_Ganancias"><rect fill="#F1F1F1" height="27.6094" id="Ganancias" rx="2.5" ry="2.5" style="stroke:#181818;stroke-width:0.5;" width="74" x="22" y="118"/><text fill="#000000" font-family="sans-serif" font-size="14" lengthAdjust="spacing" textLength="68" x="25" y="137.5332">Ganancias</text></g><!--MD5=[e43593a76b6933288e377c0958382165]
class Accionistas--><g id="elem_Accionistas"><rect fill="#F1F1F1" height="27.6094" id="Accionistas" rx="2.5" ry="2.5" style="stroke:#181818;stroke-width:0.5;" width="77" x="22.5" y="240"/><text fill="#000000" font-family="sans-serif" font-size="14" lengthAdjust="spacing" textLength="71" x="25.5" y="259.5332">Accionistas</text></g><!--MD5=[90cbd1fbe3b97ffbe5ad30348823c0ca]
class Bienes o Servicios--><g id="elem_Bienes o Servicios"><rect fill="#F1F1F1" height="27.6094" id="Bienes o Servicios" rx="2.5" ry="2.5" style="stroke:#181818;stroke-width:0.5;" width="122" x="230" y="240"/><text fill="#000000" font-family="sans-serif" font-size="14" lengthAdjust="spacing" textLength="116" x="233" y="259.5332">Bienes o Servicios</text></g><!--MD5=[d00d34812ce7333c7bcaef496f56baf0]
class Valor--><g id="elem_Valor"><rect fill="#F1F1F1" height="27.6094" id="Valor" rx="2.5" ry="2.5" style="stroke:#181818;stroke-width:0.5;" width="39" x="502.5" y="118"/><text fill="#000000" font-family="sans-serif" font-size="14" lengthAdjust="spacing" textLength="33" x="505.5" y="137.5332">Valor</text></g><!--MD5=[1f6735a51315150a0a643a1ac05195e0]
class Organización--><g id="elem_Organización"><rect fill="#F1F1F1" height="27.6094" id="Organización" rx="2.5" ry="2.5" style="stroke:#181818;stroke-width:0.5;" width="89" x="254.5" y="7"/><text fill="#000000" font-family="sans-serif" font-size="14" lengthAdjust="spacing" textLength="83" x="257.5" y="26.5332">Organización</text></g><!--MD5=[abd2c9c6ce46269cbe00cfe900c26e5c]
class Clientes--><g id="elem_Clientes"><rect fill="#F1F1F1" height="27.6094" id="Clientes" rx="2.5" ry="2.5" style="stroke:#181818;stroke-width:0.5;" width="57" x="447.5" y="240"/><text fill="#000000" font-family="sans-serif" font-size="14" lengthAdjust="spacing" textLength="51" x="450.5" y="259.5332">Clientes</text></g><!--MD5=[a307834582407f0a12949affd15509a9]
link Ganancias to Empresa--><g id="link_Ganancias_Empresa"><path codeLine="3" d="M96.24,132 C131.65,132 185.83,132 229.27,132 " fill="none" id="Ganancias-Empresa" style="stroke:#181818;stroke-width:1.0;"/><polygon fill="#000000" points="113.25,120.1758,122.2951,123.1147,122.2951,117.2369,113.25,120.1758" style="stroke:#000000;stroke-width:1.0;"/><text fill="#000000" font-family="sans-serif" font-size="13" lengthAdjust="spacing" textLength="84" x="127.25" y="125.4951">Busca generar</text></g><!--MD5=[7e6b3df97924c121aab672024a188f13]
link Ganancias to Accionistas--><g id="link_Ganancias_Accionistas"><path codeLine="4" d="M59.22,146.3 C59.61,169.37 60.39,216.53 60.78,239.64 " fill="none" id="Ganancias-Accionistas" style="stroke:#181818;stroke-width:1.0;"/></g><!--MD5=[3ac78f5e61d70761bca8dd83151ee405]
link Empresa to Bienes o Servicios--><g id="link_Empresa_Bienes o Servicios"><path codeLine="7" d="M298.11,146.3 C296.58,169.37 293.43,216.53 291.89,239.64 " fill="none" id="Empresa-Bienes o Servicios" style="stroke:#181818;stroke-width:1.0;"/><text fill="#000000" font-family="sans-serif" font-size="13" lengthAdjust="spacing" textLength="83" x="300.5" y="190.4951">Produciendo o</text><polygon fill="#000000" points="301.6675,206.5163,305.2014,197.6866,299.3365,197.2958,301.6675,206.5163" style="stroke:#000000;stroke-width:1.0;"/><text fill="#000000" font-family="sans-serif" font-size="13" lengthAdjust="spacing" textLength="77" x="310" y="206.8467">distribuyendo</text></g><!--MD5=[04421ecd9d2ee93961504e273cdc7378]
link Empresa to Valor--><g id="link_Empresa_Valor"><path codeLine="10" d="M368.64,132 C414.9,132 472.41,132 502.14,132 " fill="none" id="Empresa-Valor" style="stroke:#181818;stroke-width:1.0;"/><polygon fill="#000000" points="396,120.1758,386.9549,117.2369,386.9549,123.1147,396,120.1758" style="stroke:#000000;stroke-width:1.0;"/><text fill="#000000" font-family="sans-serif" font-size="13" lengthAdjust="spacing" textLength="84" x="400" y="125.4951">Busca generar</text></g><!--MD5=[5b9a4a426cc74fb7baa4a27d47d1c0c1]
reverse link Organización to Empresa--><g id="link_Organización_Empresa"><path codeLine="11" d="M299,55.53 C299,76.57 299,102.52 299,117.87 " fill="none" id="Organización-backto-Empresa" style="stroke:#181818;stroke-width:1.0;"/><polygon fill="none" points="292,55.37,299,35.37,306,55.37,292,55.37" style="stroke:#181818;stroke-width:1.0;"/></g><!--MD5=[16284afe644169860b17c3a177e8b916]
link Bienes o Servicios to Clientes--><g id="link_Bienes o Servicios_Clientes"><path codeLine="12" d="M352.06,254 C383.86,254 415.65,254 447.44,254 " fill="none" id="Bienes o Servicios-Clientes" style="stroke:#181818;stroke-width:1.0;stroke-dasharray:7.0,7.0;"/></g><!--MD5=[0a690f44910ad2fb128c9071af32f3fe]
link Valor to Clientes--><g id="link_Valor_Clientes"><path codeLine="13" d="M516.9,146.3 C508.06,169.37 489.98,216.53 481.12,239.64 " fill="none" id="Valor-Clientes" style="stroke:#181818;stroke-width:1.0;"/></g><!--MD5=[6281f71eb1a0301a81128a786472d7af]
@startuml
package Empresa {
    class "Iniciativa Empresarial" as Empresa 
    Empresa -l- Ganancias: Busca generar >
    Ganancias -d- Accionistas

    
    Empresa -d- "Bienes o Servicios": Produciendo o\n distribuyendo >
}

    Empresa -r- Valor: Busca generar >
Organización <|- - Empresa
"Bienes o Servicios" .r.. Clientes
Valor -d- Clientes

hide class circle
hide empty members
@enduml

PlantUML version 1.2022.7(Mon Aug 22 19:01:30 CEST 2022)
(GPL source distribution)
Java Runtime: Java(TM) SE Runtime Environment
JVM: Java HotSpot(TM) 64-Bit Server VM
Default Encoding: UTF-8
Language: es
Country: ES
--></g></svg>