<?xml version="1.0" encoding="UTF-8" standalone="no"?><svg xmlns="http://www.w3.org/2000/svg" xmlns:xlink="http://www.w3.org/1999/xlink" contentStyleType="text/css" height="330px" preserveAspectRatio="none" style="width:519px;height:330px;background:#FFFFFF;" version="1.1" viewBox="0 0 519 330" width="519px" zoomAndPan="magnify"><defs/><g><!--MD5=[1f6735a51315150a0a643a1ac05195e0]
class Organización--><g id="elem_Organización"><rect fill="#F1F1F1" height="48" id="Organización" rx="2.5" ry="2.5" style="stroke:#181818;stroke-width:0.5;" width="115" x="216" y="7"/><ellipse cx="231" cy="23" fill="#ADD1B2" rx="11" ry="11" style="stroke:#181818;stroke-width:1.0;"/><path d="M233.7656,18.875 Q233.9219,18.6563 234.1094,18.5469 Q234.2969,18.4375 234.5156,18.4375 Q234.8906,18.4375 235.125,18.7031 Q235.3594,18.9531 235.3594,19.5625 L235.3594,21.0156 Q235.3594,21.625 235.125,21.8906 Q234.8906,22.1563 234.5156,22.1563 Q234.1719,22.1563 233.9688,21.9531 Q233.7656,21.7656 233.6563,21.25 Q233.6094,20.8906 233.4219,20.7031 Q233.0938,20.3281 232.4844,20.1094 Q231.875,19.8906 231.25,19.8906 Q230.4844,19.8906 229.8438,20.2188 Q229.2188,20.5469 228.7188,21.2969 Q228.2344,22.0469 228.2344,23.0781 L228.2344,24.1719 Q228.2344,25.4063 229.125,26.2344 Q230.0156,27.0469 231.6094,27.0469 Q232.5469,27.0469 233.2031,26.7969 Q233.5938,26.6406 234.0156,26.2031 Q234.2813,25.9375 234.4219,25.8594 Q234.5781,25.7813 234.7813,25.7813 Q235.1094,25.7813 235.3594,26.0469 Q235.625,26.2969 235.625,26.6406 Q235.625,26.9844 235.2813,27.3906 Q234.7813,27.9688 233.9844,28.2969 Q232.9063,28.75 231.6094,28.75 Q230.0938,28.75 228.8906,28.125 Q227.9063,27.625 227.2188,26.5625 Q226.5313,25.4844 226.5313,24.2031 L226.5313,23.0469 Q226.5313,21.7188 227.1406,20.5781 Q227.7656,19.4219 228.8594,18.8125 Q229.9531,18.1875 231.1875,18.1875 Q231.9219,18.1875 232.5625,18.3594 Q233.2188,18.5156 233.7656,18.875 Z " fill="#000000"/><text fill="#000000" font-family="sans-serif" font-size="14" lengthAdjust="spacing" textLength="83" x="245" y="28.7285">Organización</text><line style="stroke:#181818;stroke-width:0.5;" x1="217" x2="330" y1="39" y2="39"/><line style="stroke:#181818;stroke-width:0.5;" x1="217" x2="330" y1="47" y2="47"/></g><!--MD5=[7d0e5ddd73bd8fec86b8967827845935]
class Empresa--><g id="elem_Empresa"><rect fill="#F1F1F1" height="48" id="Empresa" rx="2.5" ry="2.5" style="stroke:#181818;stroke-width:0.5;" width="88" x="229.5" y="116"/><ellipse cx="244.5" cy="132" fill="#ADD1B2" rx="11" ry="11" style="stroke:#181818;stroke-width:1.0;"/><path d="M247.2656,127.875 Q247.4219,127.6563 247.6094,127.5469 Q247.7969,127.4375 248.0156,127.4375 Q248.3906,127.4375 248.625,127.7031 Q248.8594,127.9531 248.8594,128.5625 L248.8594,130.0156 Q248.8594,130.625 248.625,130.8906 Q248.3906,131.1563 248.0156,131.1563 Q247.6719,131.1563 247.4688,130.9531 Q247.2656,130.7656 247.1563,130.25 Q247.1094,129.8906 246.9219,129.7031 Q246.5938,129.3281 245.9844,129.1094 Q245.375,128.8906 244.75,128.8906 Q243.9844,128.8906 243.3438,129.2188 Q242.7188,129.5469 242.2188,130.2969 Q241.7344,131.0469 241.7344,132.0781 L241.7344,133.1719 Q241.7344,134.4063 242.625,135.2344 Q243.5156,136.0469 245.1094,136.0469 Q246.0469,136.0469 246.7031,135.7969 Q247.0938,135.6406 247.5156,135.2031 Q247.7813,134.9375 247.9219,134.8594 Q248.0781,134.7813 248.2813,134.7813 Q248.6094,134.7813 248.8594,135.0469 Q249.125,135.2969 249.125,135.6406 Q249.125,135.9844 248.7813,136.3906 Q248.2813,136.9688 247.4844,137.2969 Q246.4063,137.75 245.1094,137.75 Q243.5938,137.75 242.3906,137.125 Q241.4063,136.625 240.7188,135.5625 Q240.0313,134.4844 240.0313,133.2031 L240.0313,132.0469 Q240.0313,130.7188 240.6406,129.5781 Q241.2656,128.4219 242.3594,127.8125 Q243.4531,127.1875 244.6875,127.1875 Q245.4219,127.1875 246.0625,127.3594 Q246.7188,127.5156 247.2656,127.875 Z " fill="#000000"/><text fill="#000000" font-family="sans-serif" font-size="14" lengthAdjust="spacing" textLength="56" x="258.5" y="137.7285">Empresa</text><line style="stroke:#181818;stroke-width:0.5;" x1="230.5" x2="316.5" y1="148" y2="148"/><line style="stroke:#181818;stroke-width:0.5;" x1="230.5" x2="316.5" y1="156" y2="156"/></g><!--MD5=[78b72863b59ffa18eada8fec2f96cb5a]
class Ganancias--><g id="elem_Ganancias"><rect fill="#F1F1F1" height="48" id="Ganancias" rx="2.5" ry="2.5" style="stroke:#181818;stroke-width:0.5;" width="100" x="8.5" y="116"/><ellipse cx="23.5" cy="132" fill="#ADD1B2" rx="11" ry="11" style="stroke:#181818;stroke-width:1.0;"/><path d="M26.2656,127.875 Q26.4219,127.6563 26.6094,127.5469 Q26.7969,127.4375 27.0156,127.4375 Q27.3906,127.4375 27.625,127.7031 Q27.8594,127.9531 27.8594,128.5625 L27.8594,130.0156 Q27.8594,130.625 27.625,130.8906 Q27.3906,131.1563 27.0156,131.1563 Q26.6719,131.1563 26.4688,130.9531 Q26.2656,130.7656 26.1563,130.25 Q26.1094,129.8906 25.9219,129.7031 Q25.5938,129.3281 24.9844,129.1094 Q24.375,128.8906 23.75,128.8906 Q22.9844,128.8906 22.3438,129.2188 Q21.7188,129.5469 21.2188,130.2969 Q20.7344,131.0469 20.7344,132.0781 L20.7344,133.1719 Q20.7344,134.4063 21.625,135.2344 Q22.5156,136.0469 24.1094,136.0469 Q25.0469,136.0469 25.7031,135.7969 Q26.0938,135.6406 26.5156,135.2031 Q26.7813,134.9375 26.9219,134.8594 Q27.0781,134.7813 27.2813,134.7813 Q27.6094,134.7813 27.8594,135.0469 Q28.125,135.2969 28.125,135.6406 Q28.125,135.9844 27.7813,136.3906 Q27.2813,136.9688 26.4844,137.2969 Q25.4063,137.75 24.1094,137.75 Q22.5938,137.75 21.3906,137.125 Q20.4063,136.625 19.7188,135.5625 Q19.0313,134.4844 19.0313,133.2031 L19.0313,132.0469 Q19.0313,130.7188 19.6406,129.5781 Q20.2656,128.4219 21.3594,127.8125 Q22.4531,127.1875 23.6875,127.1875 Q24.4219,127.1875 25.0625,127.3594 Q25.7188,127.5156 26.2656,127.875 Z " fill="#000000"/><text fill="#000000" font-family="sans-serif" font-size="14" lengthAdjust="spacing" textLength="68" x="37.5" y="137.7285">Ganancias</text><line style="stroke:#181818;stroke-width:0.5;" x1="9.5" x2="107.5" y1="148" y2="148"/><line style="stroke:#181818;stroke-width:0.5;" x1="9.5" x2="107.5" y1="156" y2="156"/></g><!--MD5=[e43593a76b6933288e377c0958382165]
class Accionistas--><g id="elem_Accionistas"><rect fill="#F1F1F1" height="48" id="Accionistas" rx="2.5" ry="2.5" style="stroke:#181818;stroke-width:0.5;" width="103" x="7" y="275"/><ellipse cx="22" cy="291" fill="#ADD1B2" rx="11" ry="11" style="stroke:#181818;stroke-width:1.0;"/><path d="M24.7656,286.875 Q24.9219,286.6563 25.1094,286.5469 Q25.2969,286.4375 25.5156,286.4375 Q25.8906,286.4375 26.125,286.7031 Q26.3594,286.9531 26.3594,287.5625 L26.3594,289.0156 Q26.3594,289.625 26.125,289.8906 Q25.8906,290.1563 25.5156,290.1563 Q25.1719,290.1563 24.9688,289.9531 Q24.7656,289.7656 24.6563,289.25 Q24.6094,288.8906 24.4219,288.7031 Q24.0938,288.3281 23.4844,288.1094 Q22.875,287.8906 22.25,287.8906 Q21.4844,287.8906 20.8438,288.2188 Q20.2188,288.5469 19.7188,289.2969 Q19.2344,290.0469 19.2344,291.0781 L19.2344,292.1719 Q19.2344,293.4063 20.125,294.2344 Q21.0156,295.0469 22.6094,295.0469 Q23.5469,295.0469 24.2031,294.7969 Q24.5938,294.6406 25.0156,294.2031 Q25.2813,293.9375 25.4219,293.8594 Q25.5781,293.7813 25.7813,293.7813 Q26.1094,293.7813 26.3594,294.0469 Q26.625,294.2969 26.625,294.6406 Q26.625,294.9844 26.2813,295.3906 Q25.7813,295.9688 24.9844,296.2969 Q23.9063,296.75 22.6094,296.75 Q21.0938,296.75 19.8906,296.125 Q18.9063,295.625 18.2188,294.5625 Q17.5313,293.4844 17.5313,292.2031 L17.5313,291.0469 Q17.5313,289.7188 18.1406,288.5781 Q18.7656,287.4219 19.8594,286.8125 Q20.9531,286.1875 22.1875,286.1875 Q22.9219,286.1875 23.5625,286.3594 Q24.2188,286.5156 24.7656,286.875 Z " fill="#000000"/><text fill="#000000" font-family="sans-serif" font-size="14" lengthAdjust="spacing" textLength="71" x="36" y="296.7285">Accionistas</text><line style="stroke:#181818;stroke-width:0.5;" x1="8" x2="109" y1="307" y2="307"/><line style="stroke:#181818;stroke-width:0.5;" x1="8" x2="109" y1="315" y2="315"/></g><!--MD5=[d00d34812ce7333c7bcaef496f56baf0]
class Valor--><g id="elem_Valor"><rect fill="#F1F1F1" height="48" id="Valor" rx="2.5" ry="2.5" style="stroke:#181818;stroke-width:0.5;" width="65" x="438" y="116"/><ellipse cx="453" cy="132" fill="#ADD1B2" rx="11" ry="11" style="stroke:#181818;stroke-width:1.0;"/><path d="M455.7656,127.875 Q455.9219,127.6563 456.1094,127.5469 Q456.2969,127.4375 456.5156,127.4375 Q456.8906,127.4375 457.125,127.7031 Q457.3594,127.9531 457.3594,128.5625 L457.3594,130.0156 Q457.3594,130.625 457.125,130.8906 Q456.8906,131.1563 456.5156,131.1563 Q456.1719,131.1563 455.9688,130.9531 Q455.7656,130.7656 455.6563,130.25 Q455.6094,129.8906 455.4219,129.7031 Q455.0938,129.3281 454.4844,129.1094 Q453.875,128.8906 453.25,128.8906 Q452.4844,128.8906 451.8438,129.2188 Q451.2188,129.5469 450.7188,130.2969 Q450.2344,131.0469 450.2344,132.0781 L450.2344,133.1719 Q450.2344,134.4063 451.125,135.2344 Q452.0156,136.0469 453.6094,136.0469 Q454.5469,136.0469 455.2031,135.7969 Q455.5938,135.6406 456.0156,135.2031 Q456.2813,134.9375 456.4219,134.8594 Q456.5781,134.7813 456.7813,134.7813 Q457.1094,134.7813 457.3594,135.0469 Q457.625,135.2969 457.625,135.6406 Q457.625,135.9844 457.2813,136.3906 Q456.7813,136.9688 455.9844,137.2969 Q454.9063,137.75 453.6094,137.75 Q452.0938,137.75 450.8906,137.125 Q449.9063,136.625 449.2188,135.5625 Q448.5313,134.4844 448.5313,133.2031 L448.5313,132.0469 Q448.5313,130.7188 449.1406,129.5781 Q449.7656,128.4219 450.8594,127.8125 Q451.9531,127.1875 453.1875,127.1875 Q453.9219,127.1875 454.5625,127.3594 Q455.2188,127.5156 455.7656,127.875 Z " fill="#000000"/><text fill="#000000" font-family="sans-serif" font-size="14" lengthAdjust="spacing" textLength="33" x="467" y="137.7285">Valor</text><line style="stroke:#181818;stroke-width:0.5;" x1="439" x2="502" y1="148" y2="148"/><line style="stroke:#181818;stroke-width:0.5;" x1="439" x2="502" y1="156" y2="156"/></g><!--MD5=[abd2c9c6ce46269cbe00cfe900c26e5c]
class Clientes--><g id="elem_Clientes"><rect fill="#F1F1F1" height="48" id="Clientes" rx="2.5" ry="2.5" style="stroke:#181818;stroke-width:0.5;" width="83" x="429" y="275"/><ellipse cx="444" cy="291" fill="#ADD1B2" rx="11" ry="11" style="stroke:#181818;stroke-width:1.0;"/><path d="M446.7656,286.875 Q446.9219,286.6563 447.1094,286.5469 Q447.2969,286.4375 447.5156,286.4375 Q447.8906,286.4375 448.125,286.7031 Q448.3594,286.9531 448.3594,287.5625 L448.3594,289.0156 Q448.3594,289.625 448.125,289.8906 Q447.8906,290.1563 447.5156,290.1563 Q447.1719,290.1563 446.9688,289.9531 Q446.7656,289.7656 446.6563,289.25 Q446.6094,288.8906 446.4219,288.7031 Q446.0938,288.3281 445.4844,288.1094 Q444.875,287.8906 444.25,287.8906 Q443.4844,287.8906 442.8438,288.2188 Q442.2188,288.5469 441.7188,289.2969 Q441.2344,290.0469 441.2344,291.0781 L441.2344,292.1719 Q441.2344,293.4063 442.125,294.2344 Q443.0156,295.0469 444.6094,295.0469 Q445.5469,295.0469 446.2031,294.7969 Q446.5938,294.6406 447.0156,294.2031 Q447.2813,293.9375 447.4219,293.8594 Q447.5781,293.7813 447.7813,293.7813 Q448.1094,293.7813 448.3594,294.0469 Q448.625,294.2969 448.625,294.6406 Q448.625,294.9844 448.2813,295.3906 Q447.7813,295.9688 446.9844,296.2969 Q445.9063,296.75 444.6094,296.75 Q443.0938,296.75 441.8906,296.125 Q440.9063,295.625 440.2188,294.5625 Q439.5313,293.4844 439.5313,292.2031 L439.5313,291.0469 Q439.5313,289.7188 440.1406,288.5781 Q440.7656,287.4219 441.8594,286.8125 Q442.9531,286.1875 444.1875,286.1875 Q444.9219,286.1875 445.5625,286.3594 Q446.2188,286.5156 446.7656,286.875 Z " fill="#000000"/><text fill="#000000" font-family="sans-serif" font-size="14" lengthAdjust="spacing" textLength="51" x="458" y="296.7285">Clientes</text><line style="stroke:#181818;stroke-width:0.5;" x1="430" x2="511" y1="307" y2="307"/><line style="stroke:#181818;stroke-width:0.5;" x1="430" x2="511" y1="315" y2="315"/></g><!--MD5=[aef3b328b8415d76003119b53d6df174]
class BienesServicios--><g id="elem_BienesServicios"><rect fill="#F1F1F1" height="48" id="BienesServicios" rx="2.5" ry="2.5" style="stroke:#181818;stroke-width:0.5;" width="132" x="207.5" y="275"/><ellipse cx="222.5" cy="291" fill="#ADD1B2" rx="11" ry="11" style="stroke:#181818;stroke-width:1.0;"/><path d="M225.2656,286.875 Q225.4219,286.6563 225.6094,286.5469 Q225.7969,286.4375 226.0156,286.4375 Q226.3906,286.4375 226.625,286.7031 Q226.8594,286.9531 226.8594,287.5625 L226.8594,289.0156 Q226.8594,289.625 226.625,289.8906 Q226.3906,290.1563 226.0156,290.1563 Q225.6719,290.1563 225.4688,289.9531 Q225.2656,289.7656 225.1563,289.25 Q225.1094,288.8906 224.9219,288.7031 Q224.5938,288.3281 223.9844,288.1094 Q223.375,287.8906 222.75,287.8906 Q221.9844,287.8906 221.3438,288.2188 Q220.7188,288.5469 220.2188,289.2969 Q219.7344,290.0469 219.7344,291.0781 L219.7344,292.1719 Q219.7344,293.4063 220.625,294.2344 Q221.5156,295.0469 223.1094,295.0469 Q224.0469,295.0469 224.7031,294.7969 Q225.0938,294.6406 225.5156,294.2031 Q225.7813,293.9375 225.9219,293.8594 Q226.0781,293.7813 226.2813,293.7813 Q226.6094,293.7813 226.8594,294.0469 Q227.125,294.2969 227.125,294.6406 Q227.125,294.9844 226.7813,295.3906 Q226.2813,295.9688 225.4844,296.2969 Q224.4063,296.75 223.1094,296.75 Q221.5938,296.75 220.3906,296.125 Q219.4063,295.625 218.7188,294.5625 Q218.0313,293.4844 218.0313,292.2031 L218.0313,291.0469 Q218.0313,289.7188 218.6406,288.5781 Q219.2656,287.4219 220.3594,286.8125 Q221.4531,286.1875 222.6875,286.1875 Q223.4219,286.1875 224.0625,286.3594 Q224.7188,286.5156 225.2656,286.875 Z " fill="#000000"/><text fill="#000000" font-family="sans-serif" font-size="14" lengthAdjust="spacing" textLength="100" x="236.5" y="296.7285">BienesServicios</text><line style="stroke:#181818;stroke-width:0.5;" x1="208.5" x2="338.5" y1="307" y2="307"/><line style="stroke:#181818;stroke-width:0.5;" x1="208.5" x2="338.5" y1="315" y2="315"/></g><!--MD5=[5b9a4a426cc74fb7baa4a27d47d1c0c1]
reverse link Organización to Empresa--><g id="link_Organización_Empresa"><path codeLine="1" d="M273.5,75.58 C273.5,89.36 273.5,104.06 273.5,115.83 " fill="none" id="Organización-backto-Empresa" style="stroke:#181818;stroke-width:1.0;"/><polygon fill="none" points="266.5,75.22,273.5,55.22,280.5,75.22,266.5,75.22" style="stroke:#181818;stroke-width:1.0;"/></g><!--MD5=[2dc96cbf884aa40472681d3112dd8070]
reverse link Ganancias to Empresa--><g id="link_Ganancias_Empresa"><path codeLine="2" d="M113.86,140 C149.82,140 196.04,140 229.49,140 " fill="none" id="Ganancias-backto-Empresa" style="stroke:#181818;stroke-width:1.0;"/><polygon fill="#181818" points="108.64,140,117.64,144,113.64,140,117.64,136,108.64,140" style="stroke:#181818;stroke-width:1.0;"/><text fill="#000000" font-family="sans-serif" font-size="13" lengthAdjust="spacing" textLength="84" x="127" y="133.4951">Busca generar</text></g><!--MD5=[7e6b3df97924c121aab672024a188f13]
link Ganancias to Accionistas--><g id="link_Ganancias_Accionistas"><path codeLine="3" d="M58.5,164.17 C58.5,193.93 58.5,245.3 58.5,274.99 " fill="none" id="Ganancias-Accionistas" style="stroke:#181818;stroke-width:1.0;"/></g><!--MD5=[04421ecd9d2ee93961504e273cdc7378]
link Empresa to Valor--><g id="link_Empresa_Valor"><path codeLine="4" d="M317.71,140 C352.28,140 399.81,140 432.64,140 " fill="none" id="Empresa-to-Valor" style="stroke:#181818;stroke-width:1.0;"/><polygon fill="#181818" points="437.78,140,428.78,136,432.78,140,428.78,144,437.78,140" style="stroke:#181818;stroke-width:1.0;"/><text fill="#000000" font-family="sans-serif" font-size="13" lengthAdjust="spacing" textLength="84" x="335.75" y="133.4951">Busca generar</text></g><!--MD5=[0a690f44910ad2fb128c9071af32f3fe]
link Valor to Clientes--><g id="link_Valor_Clientes"><path codeLine="5" d="M470.5,164.17 C470.5,193.93 470.5,245.3 470.5,274.99 " fill="none" id="Valor-Clientes" style="stroke:#181818;stroke-width:1.0;"/></g><!--MD5=[0948f2db340e9f254c93e5d57959f551]
link Empresa to BienesServicios--><g id="link_Empresa_BienesServicios"><path codeLine="6" d="M273.5,164.17 C273.5,192.31 273.5,239.75 273.5,269.94 " fill="none" id="Empresa-to-BienesServicios" style="stroke:#181818;stroke-width:1.0;"/><polygon fill="#181818" points="273.5,274.99,277.5,265.99,273.5,269.99,269.5,265.99,273.5,274.99" style="stroke:#181818;stroke-width:1.0;"/><text fill="#000000" font-family="sans-serif" font-size="13" lengthAdjust="spacing" textLength="79" x="274.5" y="208.4951">A través de la</text><text fill="#000000" font-family="sans-serif" font-size="13" lengthAdjust="spacing" textLength="74" x="277" y="224.8467">producción o</text><text fill="#000000" font-family="sans-serif" font-size="13" lengthAdjust="spacing" textLength="66" x="283" y="241.1982">distribución</text></g><!--MD5=[e7d44eb676bb5b5a2e15ef1d43f64c4b]
@startuml
Organización <|- - Empresa
Empresa -l-> Ganancias: Busca generar
Ganancias -d- Accionistas
Empresa -r-> Valor: Busca generar
Valor -d- Clientes
Empresa -d-> BienesServicios:A través de la\nproducción o\n distribución
@enduml

PlantUML version 1.2022.7(Mon Aug 22 19:01:30 CEST 2022)
(GPL source distribution)
Java Runtime: Java(TM) SE Runtime Environment
JVM: Java HotSpot(TM) 64-Bit Server VM
Default Encoding: UTF-8
Language: es
Country: ES
--></g></svg>